<?xml version="1.0" encoding="us-ascii" standalone="no"?><svg xmlns="http://www.w3.org/2000/svg" xmlns:xlink="http://www.w3.org/1999/xlink" contentStyleType="text/css" height="1375px" preserveAspectRatio="none" style="width:2882px;height:1375px;background:#FFFFFF;" version="1.1" viewBox="0 0 2882 1375" width="2882px" zoomAndPan="magnify"><defs/><g><text fill="#000000" font-family="sans-serif" font-size="14" font-weight="bold" lengthAdjust="spacing" textLength="304.375" x="1281.8125" y="24.5332">&#31532;0&#23618;&#25968;&#25454;&#27969;&#22270; (Level 0 DFD) - &#26234;&#33021;&#25945;&#21153;Agent</text><!--cluster ????Agent????--><g id="cluster_&#26234;&#33021;&#25945;&#21153;Agent&#31995;&#32479;&#36793;&#30028;"><rect fill="none" height="878" rx="2.5" ry="2.5" style="stroke:#181818;stroke-width:1.0;" width="2869" x="7" y="229.3594"/><text fill="#000000" font-family="sans-serif" font-size="14" font-weight="bold" lengthAdjust="spacing" textLength="156.5" x="1363.25" y="245.8926">&#26234;&#33021;&#25945;&#21153;Agent&#31995;&#32479;&#36793;&#30028;</text></g><g id="elem_P1_AI_Academic"><ellipse cx="1637.7514" cy="907.2096" fill="#FFFFE0" rx="94.7514" ry="21.3503" style="stroke:#FFA500;stroke-width:0.5;"/><text fill="#000000" font-family="sans-serif" font-size="14" lengthAdjust="spacing" textLength="149" x="1563.2514" y="910.9382">P1: AI&#26680;&#24515;&#23398;&#19994;&#25903;&#25345;&#26381;&#21153;</text></g><g id="elem_GMN7"><path d="M2100.5,844.8594 L2100.5,887.5625 L2303.5,887.5625 L2303.5,854.8594 L2293.5,844.8594 L2100.5,844.8594 " fill="#FEFFDD" style="stroke:#181818;stroke-width:0.5;"/><path d="M2293.5,844.8594 L2293.5,854.8594 L2303.5,854.8594 L2293.5,844.8594 " fill="#FEFFDD" style="stroke:#181818;stroke-width:1.0;"/><text fill="#000000" font-family="sans-serif" font-size="13" lengthAdjust="spacing" textLength="143" x="2106.5" y="863.3545">&#21547;&#26234;&#33021;&#36873;&#35838;&#12289;&#23398;&#19994;&#35268;&#21010;&#12289;</text><text fill="#000000" font-family="sans-serif" font-size="13" lengthAdjust="spacing" textLength="182" x="2106.5" y="879.7061">&#25945;&#26448;&#25903;&#25345;&#12289;&#23398;&#19994;&#20998;&#26512;&#12289;&#23548;&#24072;&#21305;&#37197;</text></g><g id="elem_P2_AI_Affairs"><ellipse cx="2745.4506" cy="890.4495" fill="#FFFFE0" rx="100.9506" ry="22.5901" style="stroke:#FFA500;stroke-width:0.5;"/><text fill="#000000" font-family="sans-serif" font-size="14" lengthAdjust="spacing" textLength="163" x="2663.9506" y="894.178">P2: AI&#20107;&#21153;&#30003;&#35831;&#19982;&#26085;&#31243;&#26381;&#21153;</text></g><g id="elem_P3_Student_Extra"><ellipse cx="1140.591" cy="976.2776" fill="#FFFFE0" rx="120.091" ry="26.4182" style="stroke:#FFA500;stroke-width:0.5;"/><text fill="#000000" font-family="sans-serif" font-size="14" lengthAdjust="spacing" textLength="205" x="1038.091" y="980.0061">P3: AI&#36741;&#21161;&#31532;&#20108;&#35838;&#22530;&#26381;&#21153; (&#23398;&#29983;&#31471;)</text></g><g id="elem_P4_Org_Extra"><ellipse cx="2202.0183" cy="292.463" fill="#FFFFE0" rx="121.0183" ry="26.6037" style="stroke:#FFA500;stroke-width:0.5;"/><text fill="#000000" font-family="sans-serif" font-size="14" lengthAdjust="spacing" textLength="207" x="2098.5183" y="296.1915">P4: &#31532;&#20108;&#35838;&#22530;&#31649;&#29702;&#26381;&#21153; (&#32452;&#32455;&#32773;&#31471;)</text></g><g id="elem_P5_Admin_Config"><ellipse cx="123.9506" cy="971.4495" fill="#FFFFE0" rx="100.9506" ry="22.5901" style="stroke:#FFA500;stroke-width:0.5;"/><text fill="#000000" font-family="sans-serif" font-size="14" lengthAdjust="spacing" textLength="163" x="42.4506" y="975.178">P5: &#31995;&#32479;&#25968;&#25454;&#19982;AI&#37197;&#32622;&#31649;&#29702;</text></g><g id="elem_P6_Admin_Analytics"><ellipse cx="2745.4506" cy="690.4495" fill="#FFFFE0" rx="100.9506" ry="22.5901" style="stroke:#FFA500;stroke-width:0.5;"/><text fill="#000000" font-family="sans-serif" font-size="14" lengthAdjust="spacing" textLength="163" x="2663.9506" y="694.178">P6: &#31995;&#32479;&#30417;&#25511;&#19982;AI&#27934;&#23519;&#26381;&#21153;</text></g><g id="elem_P_AI_Engine"><ellipse cx="566.7131" cy="580.602" fill="#FFFFE0" rx="121.7131" ry="26.7426" style="stroke:#FFA500;stroke-width:0.5;"/><text fill="#000000" font-family="sans-serif" font-size="14" font-style="italic" lengthAdjust="spacing" textLength="79" x="521.3106" y="572.7738">&#171;AI Service&#187;</text><text fill="#000000" font-family="sans-serif" font-size="14" lengthAdjust="spacing" textLength="185" x="468.3106" y="590.3832">P_AI_Engine: AI&#26680;&#24515;&#22788;&#29702;&#24341;&#25806;</text></g><g id="elem_GMN16"><path d="M465,475.8594 L465,518.5625 A0,0 0 0 0 465,518.5625 L562.5,518.5625 L566.5,553.7694 L570.5,518.5625 L668,518.5625 A0,0 0 0 0 668,518.5625 L668,485.8594 L658,475.8594 L465,475.8594 A0,0 0 0 0 465,475.8594 " fill="#FEFFDD" style="stroke:#181818;stroke-width:0.5;"/><path d="M658,475.8594 L658,485.8594 L668,485.8594 L658,475.8594 " fill="#FEFFDD" style="stroke:#181818;stroke-width:0.5;"/><text fill="#000000" font-family="sans-serif" font-size="13" lengthAdjust="spacing" textLength="181" x="471" y="494.3545">&#25552;&#20379;&#24213;&#23618;&#30340;AI&#31639;&#27861;&#12289;&#27169;&#22411;&#25512;&#29702;&#12289;</text><text fill="#000000" font-family="sans-serif" font-size="13" lengthAdjust="spacing" textLength="182" x="471" y="510.7061">&#30693;&#35782;&#22788;&#29702;&#33021;&#21147;&#65292;&#34987;&#20854;&#20182;&#36807;&#31243;&#35843;&#29992;</text></g><!--entity DS_UserAcademic--><g id="elem_DS_UserAcademic"><path d="M2118.5,932.8594 C2118.5,922.8594 2202,922.8594 2202,922.8594 C2202,922.8594 2285.5,922.8594 2285.5,932.8594 L2285.5,959.4688 C2285.5,969.4688 2202,969.4688 2202,969.4688 C2202,969.4688 2118.5,969.4688 2118.5,959.4688 L2118.5,932.8594 " fill="#B0C4DE" style="stroke:#4169E1;stroke-width:0.5;"/><path d="M2118.5,932.8594 C2118.5,942.8594 2202,942.8594 2202,942.8594 C2202,942.8594 2285.5,942.8594 2285.5,932.8594 " fill="none" style="stroke:#4169E1;stroke-width:0.5;"/><text fill="#000000" font-family="sans-serif" font-size="14" lengthAdjust="spacing" textLength="147" x="2128.5" y="961.3926">DS1: &#29992;&#25143;&#19982;&#23398;&#19994;&#25968;&#25454;&#24211;</text></g><g id="elem_GMN20"><path d="M2631,967.8594 L2631,1010.5625 L2860,1010.5625 L2860,977.8594 L2850,967.8594 L2631,967.8594 " fill="#FEFFDD" style="stroke:#181818;stroke-width:0.5;"/><path d="M2850,967.8594 L2850,977.8594 L2860,977.8594 L2850,967.8594 " fill="#FEFFDD" style="stroke:#181818;stroke-width:1.0;"/><text fill="#000000" font-family="sans-serif" font-size="13" lengthAdjust="spacing" textLength="169" x="2637" y="986.3545">&#23384;&#20648;&#29992;&#25143;&#30011;&#20687;&#12289;&#23398;&#31821;&#12289;&#25104;&#32489;&#12289;</text><text fill="#000000" font-family="sans-serif" font-size="13" lengthAdjust="spacing" textLength="208" x="2637" y="1002.7061">&#36873;&#35838;&#12289;&#24179;&#26102;&#34920;&#29616;&#12289;&#26085;&#31243;&#12289;&#30003;&#35831;&#35760;&#24405;&#31561;</text></g><!--entity DS_KnowledgeRules--><g id="elem_DS_KnowledgeRules"><path d="M1043,663.8594 C1043,653.8594 1140.5,653.8594 1140.5,653.8594 C1140.5,653.8594 1238,653.8594 1238,663.8594 L1238,690.4687 C1238,700.4687 1140.5,700.4687 1140.5,700.4687 C1140.5,700.4687 1043,700.4687 1043,690.4687 L1043,663.8594 " fill="#B0C4DE" style="stroke:#4169E1;stroke-width:0.5;"/><path d="M1043,663.8594 C1043,673.8594 1140.5,673.8594 1140.5,673.8594 C1140.5,673.8594 1238,673.8594 1238,663.8594 " fill="none" style="stroke:#4169E1;stroke-width:0.5;"/><text fill="#000000" font-family="sans-serif" font-size="14" lengthAdjust="spacing" textLength="175" x="1053" y="692.3926">DS2: &#25945;&#23398;&#36164;&#28304;&#19982;&#35268;&#21017;&#30693;&#35782;&#24211;</text></g><g id="elem_GMN24"><path d="M1020,575.8594 L1020,618.5625 A0,0 0 0 0 1020,618.5625 L1136.5,618.5625 L1140.5,653.6094 L1144.5,618.5625 L1261,618.5625 A0,0 0 0 0 1261,618.5625 L1261,585.8594 L1251,575.8594 L1020,575.8594 A0,0 0 0 0 1020,575.8594 " fill="#FEFFDD" style="stroke:#181818;stroke-width:0.5;"/><path d="M1251,575.8594 L1251,585.8594 L1261,585.8594 L1251,575.8594 " fill="#FEFFDD" style="stroke:#181818;stroke-width:0.5;"/><text fill="#000000" font-family="sans-serif" font-size="13" lengthAdjust="spacing" textLength="195" x="1026" y="594.3545">&#23384;&#20648;&#22521;&#20859;&#26041;&#26696;&#12289;&#35838;&#31243;&#20449;&#24687;&#12289;&#25945;&#26448;&#12289;</text><text fill="#000000" font-family="sans-serif" font-size="13" lengthAdjust="spacing" textLength="220" x="1026" y="610.7061">&#23548;&#24072;&#24211;&#12289;AI&#31574;&#30053;&#12289;&#30003;&#35831;&#35268;&#21017;&#12289;&#36890;&#29992;&#30693;&#35782;</text></g><!--entity DS_Activities--><g id="elem_DS_Activities"><path d="M1547.5,349.8594 C1547.5,339.8594 1638,339.8594 1638,339.8594 C1638,339.8594 1728.5,339.8594 1728.5,349.8594 L1728.5,376.4687 C1728.5,386.4687 1638,386.4687 1638,386.4687 C1638,386.4687 1547.5,386.4687 1547.5,376.4687 L1547.5,349.8594 " fill="#B0C4DE" style="stroke:#4169E1;stroke-width:0.5;"/><path d="M1547.5,349.8594 C1547.5,359.8594 1638,359.8594 1638,359.8594 C1638,359.8594 1728.5,359.8594 1728.5,349.8594 " fill="none" style="stroke:#4169E1;stroke-width:0.5;"/><text fill="#000000" font-family="sans-serif" font-size="14" lengthAdjust="spacing" textLength="161" x="1557.5" y="378.3926">DS3: &#31532;&#20108;&#35838;&#22530;&#27963;&#21160;&#25968;&#25454;&#24211;</text></g><!--entity User--><g id="elem_User"><ellipse cx="2202" cy="1131.8594" fill="#D3D3D3" rx="8" ry="8" style="stroke:#000000;stroke-width:0.5;"/><path d="M2202,1139.8594 L2202,1166.8594 M2189,1147.8594 L2215,1147.8594 M2202,1166.8594 L2189,1181.8594 M2202,1166.8594 L2215,1181.8594 " fill="none" style="stroke:#000000;stroke-width:0.5;"/><text fill="#000000" font-family="sans-serif" font-size="14" lengthAdjust="spacing" textLength="28" x="2188" y="1197.8926">&#23398;&#29983;</text></g><!--entity Admin--><g id="elem_Admin"><ellipse cx="2202" cy="1244.8594" fill="#D3D3D3" rx="8" ry="8" style="stroke:#000000;stroke-width:0.5;"/><path d="M2202,1252.8594 L2202,1279.8594 M2189,1260.8594 L2215,1260.8594 M2202,1279.8594 L2189,1294.8594 M2202,1279.8594 L2215,1294.8594 " fill="none" style="stroke:#000000;stroke-width:0.5;"/><text fill="#000000" font-family="sans-serif" font-size="14" lengthAdjust="spacing" textLength="42" x="2181" y="1310.8926">&#31649;&#29702;&#26041;</text></g><!--entity Organizer--><g id="elem_Organizer"><ellipse cx="2745.5" cy="143.8594" fill="#D3D3D3" rx="8" ry="8" style="stroke:#000000;stroke-width:0.5;"/><path d="M2745.5,151.8594 L2745.5,178.8594 M2732.5,159.8594 L2758.5,159.8594 M2745.5,178.8594 L2732.5,193.8594 M2745.5,178.8594 L2758.5,193.8594 " fill="none" style="stroke:#000000;stroke-width:0.5;"/><text fill="#000000" font-family="sans-serif" font-size="14" lengthAdjust="spacing" textLength="98" x="2696.5" y="209.8926">&#31532;&#20108;&#35838;&#22530;&#32452;&#32455;&#32773;</text></g><g id="elem_SystemDescription"><path d="M70,187.3594 L70,213.7109 L178.4375,213.7109 L178.4375,197.3594 L168.4375,187.3594 L70,187.3594 " fill="#FEFFDD" style="stroke:#181818;stroke-width:0.5;"/><path d="M168.4375,187.3594 L168.4375,197.3594 L178.4375,197.3594 L168.4375,187.3594 " fill="#FEFFDD" style="stroke:#181818;stroke-width:1.0;"/><text fill="#000000" font-family="sans-serif" font-size="13" font-weight="bold" lengthAdjust="spacing" textLength="87.4375" x="76" y="205.8545">&#31532;0&#23618;&#25968;&#25454;&#27969;&#22270;</text></g><!--link P1_AI_Academic to GMN7--><g id="link_P1_AI_Academic_GMN7"><path d="M1707.93,892.7694 C1725.79,889.4894 1745.05,886.3794 1763,884.3594 C1878.14,871.3794 2011.25,867.4694 2100.23,866.4394 " fill="none" id="P1_AI_Academic-GMN7" style="stroke:#FFA500;stroke-width:1.0;stroke-dasharray:7.0,7.0;"/></g><!--link DS_UserAcademic to GMN20--><g id="link_DS_UserAcademic_GMN20"><path d="M2281.34,969.8994 C2304.23,975.7694 2329.43,981.2694 2353,984.3594 C2404.64,991.1294 2534.75,991.5894 2630.88,990.8594 " fill="none" id="DS_UserAcademic-GMN20" style="stroke:#FFA500;stroke-width:1.0;stroke-dasharray:7.0,7.0;"/></g><!--link User to P1_AI_Academic--><g id="link_User_P1_AI_Academic"><path d="M2187.94,1158.7294 C2164.58,1151.7494 2114.9,1134.6894 2081,1107.3594 C2063.7,1093.4094 2069.43,1079.7694 2051,1067.3594 C1941.19,993.4194 1876.69,1059.1694 1763,991.3594 C1746.26,981.3694 1748.38,971.3294 1733,959.3594 C1716.96,946.8694 1702.8646,938.3549 1685.8446,929.5149 " fill="none" id="User-to-P1_AI_Academic" style="stroke:#FFA500;stroke-width:1.0;"/><polygon fill="#FFA500" points="1680.52,926.7494,1686.6632,934.4475,1684.9572,929.054,1690.3507,927.348,1680.52,926.7494" style="stroke:#FFA500;stroke-width:1.0;"/><text fill="#000000" font-family="sans-serif" font-size="13" lengthAdjust="spacing" textLength="272" x="1771" y="987.8545">&#23398;&#19994;&#26381;&#21153;&#35831;&#27714; (&#36873;&#35838;&#24847;&#21521;&#12289;&#35268;&#21010;&#30446;&#26631;&#12289;&#20998;&#26512;&#38656;&#27714;)</text></g><!--link P1_AI_Academic to User--><g id="link_P1_AI_Academic_User"><path d="M1689.7,925.6194 C1705.7,933.6794 1722.04,944.7294 1733,959.3594 C1769.59,1008.2094 1717.55,1052.6294 1763,1093.3594 C1810.96,1136.3294 1987.6,1114.0694 2051,1125.3594 C2102.23,1134.4794 2156.1952,1149.3658 2182.1152,1156.8458 " fill="none" id="P1_AI_Academic-to-User" style="stroke:#FFA500;stroke-width:1.0;"/><polygon fill="#FFA500" points="2187.88,1158.5094,2180.3419,1152.1708,2183.076,1157.123,2178.1238,1159.8572,2187.88,1158.5094" style="stroke:#FFA500;stroke-width:1.0;"/><text fill="#000000" font-family="sans-serif" font-size="13" lengthAdjust="spacing" textLength="286" x="1764" y="1089.8545">&#20010;&#24615;&#21270;&#36873;&#35838;&#26041;&#26696;&#12289;&#23398;&#19994;&#25253;&#21578;&#12289;&#23548;&#24072;&#25512;&#33616;&#12289;&#25945;&#26448;&#24314;&#35758;</text></g><!--link P1_AI_Academic to P_AI_Engine--><g id="link_P1_AI_Academic_P_AI_Engine"><path d="M1542.94,906.6794 C1336.84,903.5894 853,887.0194 718,800.3594 C643.81,752.7394 598.9605,659.7273 579.7105,612.3973 " fill="none" id="P1_AI_Academic-to-P_AI_Engine" style="stroke:#FFA500;stroke-width:1.0;"/><polygon fill="#FFA500" points="577.45,606.8394,577.1355,616.6832,579.3337,611.471,584.546,613.6692,577.45,606.8394" style="stroke:#FFA500;stroke-width:1.0;"/><text fill="#000000" font-family="sans-serif" font-size="13" lengthAdjust="spacing" textLength="171" x="1055" y="874.8545">&#23398;&#19994;&#25968;&#25454;&#19982;&#35831;&#27714; (AI&#20998;&#26512;/&#25512;&#33616;)</text></g><!--link P_AI_Engine to P1_AI_Academic--><g id="link_P_AI_Engine_P1_AI_Academic"><path d="M583.49,606.7794 C607.66,644.2394 657.18,712.0594 718,746.3594 C932.17,867.1594 1037.88,749.0194 1261,852.3594 C1276.49,859.5394 1275.13,870.0594 1291,876.3594 C1337,894.6194 1463.72,889.7794 1513,894.3594 C1525.61,895.5294 1532.9609,896.241 1546.0109,897.571 " fill="none" id="P_AI_Engine-to-P1_AI_Academic" style="stroke:#FFA500;stroke-width:1.0;"/><polygon fill="#FFA500" points="1551.98,898.1794,1543.4319,893.2875,1547.0058,897.6724,1542.6208,901.2462,1551.98,898.1794" style="stroke:#FFA500;stroke-width:1.0;"/><text fill="#000000" font-family="sans-serif" font-size="13" lengthAdjust="spacing" textLength="180" x="1050.5" y="801.8545">AI&#22788;&#29702;&#32467;&#26524; (&#26041;&#26696;&#12289;&#25253;&#21578;&#12289;&#21305;&#37197;)</text></g><!--link P1_AI_Academic to DS_UserAcademic--><g id="link_P1_AI_Academic_DS_UserAcademic"><path d="M1732.85,908.9094 C1816.47,910.8994 1942.09,915.3794 2051,925.3594 C2072.87,927.3594 2090.4874,929.4614 2112.3074,932.5014 " fill="none" id="P1_AI_Academic-to-DS_UserAcademic" style="stroke:#FFA500;stroke-width:1.0;"/><polygon fill="#FFA500" points="2118.25,933.3294,2109.8881,928.1257,2113.2978,932.6394,2108.7841,936.0492,2118.25,933.3294" style="stroke:#FFA500;stroke-width:1.0;"/><text fill="#000000" font-family="sans-serif" font-size="13" lengthAdjust="spacing" textLength="194" x="1810" y="906.8545">(&#20889;) &#26356;&#26032;&#29992;&#25143;&#23398;&#19994;&#30011;&#20687;&#12289;&#36873;&#35838;&#35760;&#24405;</text></g><!--link DS_UserAcademic to P1_AI_Academic--><g id="link_DS_UserAcademic_P1_AI_Academic"><path d="M2118.36,956.1494 C2029.77,964.5894 1885.35,972.4194 1763,951.3594 C1735.09,946.5494 1710.6803,938.3338 1687.2003,928.8138 " fill="none" id="DS_UserAcademic-to-P1_AI_Academic" style="stroke:#FFA500;stroke-width:1.0;"/><polygon fill="#FFA500" points="1681.64,926.5594,1688.4776,933.6479,1686.2736,928.4381,1691.4835,926.2342,1681.64,926.5594" style="stroke:#FFA500;stroke-width:1.0;"/><text fill="#000000" font-family="sans-serif" font-size="13" lengthAdjust="spacing" textLength="103" x="1855.5" y="947.8545">(&#35835;) &#29992;&#25143;&#23398;&#19994;&#25968;&#25454;</text></g><!--link DS_KnowledgeRules to P1_AI_Academic--><g id="link_DS_KnowledgeRules_P1_AI_Academic"><path d="M1173.55,701.0894 C1215.49,732.0594 1284.46,782.6494 1291,785.3594 C1383.33,823.6594 1420.31,783.9494 1513,821.3594 C1551.63,836.9494 1585.5356,862.4667 1609.1456,882.5067 " fill="none" id="DS_KnowledgeRules-to-P1_AI_Academic" style="stroke:#FFA500;stroke-width:1.0;"/><polygon fill="#FFA500" points="1613.72,886.3894,1609.4469,877.5158,1609.908,883.1538,1604.27,883.6149,1613.72,886.3894" style="stroke:#FFA500;stroke-width:1.0;"/><text fill="#000000" font-family="sans-serif" font-size="13" lengthAdjust="spacing" textLength="220" x="1292" y="781.8545">(&#35835;) &#22521;&#20859;&#26041;&#26696;&#12289;&#35838;&#31243;&#12289;&#25945;&#26448;&#12289;&#23548;&#24072;&#20449;&#24687;</text></g><!--link User to P2_AI_Affairs--><g id="link_User_P2_AI_Affairs"><path d="M2216.24,1158.9494 C2239.89,1152.3094 2290.02,1135.7894 2323,1107.3594 C2341.49,1091.4294 2333.31,1075.7794 2353,1061.3594 C2445.3,993.7594 2507.29,1057.9894 2601,992.3594 C2619.79,979.1994 2613.73,965.4594 2631,950.3594 C2650.05,933.7094 2669.0838,922.5899 2690.4238,912.5199 " fill="none" id="User-to-P2_AI_Affairs" style="stroke:#FFA500;stroke-width:1.0;"/><polygon fill="#FFA500" points="2695.85,909.9594,2686.0037,910.1827,2691.3282,912.0932,2689.4177,917.4176,2695.85,909.9594" style="stroke:#FFA500;stroke-width:1.0;"/><text fill="#000000" font-family="sans-serif" font-size="13" lengthAdjust="spacing" textLength="143" x="2405.5" y="988.8545">&#20107;&#21153;&#30003;&#35831;&#35831;&#27714;&#12289;&#26085;&#31243;&#20559;&#22909;</text></g><!--link P2_AI_Affairs to User--><g id="link_P2_AI_Affairs_User"><path d="M2687.4,908.9094 C2666.8,918.2894 2645.16,931.7294 2631,950.3594 C2593.28,999.9794 2645.72,1043.9394 2601,1087.3594 C2586.66,1101.2894 2289.4168,1148.7553 2222.0968,1159.3653 " fill="none" id="P2_AI_Affairs-to-User" style="stroke:#FFA500;stroke-width:1.0;"/><polygon fill="#FFA500" points="2216.17,1160.2994,2225.683,1162.8494,2221.109,1159.521,2224.4375,1154.947,2216.17,1160.2994" style="stroke:#FFA500;stroke-width:1.0;"/><text fill="#000000" font-family="sans-serif" font-size="13" lengthAdjust="spacing" textLength="182" x="2386" y="1083.8545">&#30003;&#35831;&#36741;&#21161;&#19982;&#29366;&#24577;&#12289;&#26234;&#33021;&#26085;&#31243;&#25552;&#37266;</text></g><!--link P2_AI_Affairs to P_AI_Engine--><g id="link_P2_AI_Affairs_P_AI_Engine"><path d="M2720.71,868.3894 C2693.84,844.9894 2647.74,808.9494 2601,791.3594 C2370.67,704.6994 2296.3,747.0894 2051,727.3594 C2008.87,723.9694 1323.37,720.5394 1291,693.3594 C1243.93,653.8394 1308.94,596.8194 1261,558.3594 C1170.91,486.0894 832.6128,533.4099 665.5128,562.2199 " fill="none" id="P2_AI_Affairs-to-P_AI_Engine" style="stroke:#FFA500;stroke-width:1.0;"/><polygon fill="#FFA500" points="659.6,563.2394,669.1488,565.6521,664.5273,562.3899,667.7895,557.7684,659.6,563.2394" style="stroke:#FFA500;stroke-width:1.0;"/><text fill="#000000" font-family="sans-serif" font-size="13" lengthAdjust="spacing" textLength="171" x="1552.5" y="712.8545">&#30003;&#35831;/&#26085;&#31243;&#25968;&#25454;&#19982;&#35831;&#27714; (AI&#22788;&#29702;)</text></g><!--link P_AI_Engine to P2_AI_Affairs--><g id="link_P_AI_Engine_P2_AI_Affairs"><path d="M628.52,557.4394 C662.07,545.2794 700.37,532.2594 718,529.3594 C837.28,509.6994 869.11,528.9094 990,529.3594 C1110.45,529.7994 1140.85,522.8494 1261,531.3594 C1474.16,546.4694 2522,714.6994 2601,754.3594 C2655.76,781.8494 2700.2299,832.3883 2724.3699,863.3383 " fill="none" id="P_AI_Engine-to-P2_AI_Affairs" style="stroke:#FFA500;stroke-width:1.0;"/><polygon fill="#FFA500" points="2728.06,868.0694,2725.6789,858.5127,2724.9849,864.1268,2719.3708,863.4328,2728.06,868.0694" style="stroke:#FFA500;stroke-width:1.0;"/><text fill="#000000" font-family="sans-serif" font-size="13" lengthAdjust="spacing" textLength="141" x="1567.5" y="562.8545">AI&#22788;&#29702;&#32467;&#26524; (&#21305;&#37197;&#12289;&#25552;&#37266;)</text></g><!--link P2_AI_Affairs to DS_UserAcademic--><g id="link_P2_AI_Affairs_DS_UserAcademic"><path d="M2706.88,911.3094 C2678.7,925.7594 2638.67,943.6894 2601,951.3594 C2493.68,973.2194 2372.6466,966.7316 2291.4866,958.1316 " fill="none" id="P2_AI_Affairs-to-DS_UserAcademic" style="stroke:#FFA500;stroke-width:1.0;"/><polygon fill="#FFA500" points="2285.52,957.4994,2294.0484,962.4255,2290.4922,958.0262,2294.8914,954.47,2285.52,957.4994" style="stroke:#FFA500;stroke-width:1.0;"/><text fill="#000000" font-family="sans-serif" font-size="13" lengthAdjust="spacing" textLength="142" x="2406" y="947.8545">(&#20889;) &#30003;&#35831;&#35760;&#24405;&#12289;&#26085;&#31243;&#25968;&#25454;</text></g><!--link DS_UserAcademic to P2_AI_Affairs--><g id="link_DS_UserAcademic_P2_AI_Affairs"><path d="M2285.5,936.8094 C2307.43,934.3194 2331.11,931.6894 2353,929.3594 C2455.39,918.4594 2566.9779,907.4473 2646.3379,899.7673 " fill="none" id="DS_UserAcademic-to-P2_AI_Affairs" style="stroke:#FFA500;stroke-width:1.0;"/><polygon fill="#FFA500" points="2652.31,899.1894,2642.9666,896.0749,2647.3332,899.671,2643.7371,904.0377,2652.31,899.1894" style="stroke:#FFA500;stroke-width:1.0;"/><text fill="#000000" font-family="sans-serif" font-size="13" lengthAdjust="spacing" textLength="77" x="2438.5" y="901.8545">(&#35835;) &#29992;&#25143;&#25968;&#25454;</text></g><!--link DS_KnowledgeRules to P2_AI_Affairs--><g id="link_DS_KnowledgeRules_P2_AI_Affairs"><path d="M1205.41,700.8694 C1223.86,708.6494 1243.67,717.9994 1261,728.3594 C1275.65,737.1194 1275.03,746.3094 1291,752.3594 C1337.19,769.8594 1463.72,760.0694 1513,763.3594 C1624.25,770.7894 1651.69,777.7594 1763,784.3594 C1949.01,795.3794 2421.1,764.8194 2601,813.3594 C2643.04,824.6994 2681.4352,846.9349 2709.3352,865.5049 " fill="none" id="DS_KnowledgeRules-to-P2_AI_Affairs" style="stroke:#FFA500;stroke-width:1.0;"/><polygon fill="#FFA500" points="2714.33,868.8294,2709.0542,860.5128,2710.1677,866.059,2704.6215,867.1725,2714.33,868.8294" style="stroke:#FFA500;stroke-width:1.0;"/><text fill="#000000" font-family="sans-serif" font-size="13" lengthAdjust="spacing" textLength="77" x="1868.5" y="780.8545">(&#35835;) &#30003;&#35831;&#35268;&#21017;</text></g><!--link User to P3_Student_Extra--><g id="link_User_P3_Student_Extra"><path d="M2187.66,1161.8194 C2134.04,1159.5194 1929.19,1149.3294 1763,1122.3594 C1562.52,1089.8194 1336.3838,1030.6555 1220.7538,998.7455 " fill="none" id="User-to-P3_Student_Extra" style="stroke:#FFA500;stroke-width:1.0;"/><polygon fill="#FFA500" points="1214.97,997.1494,1222.5816,1003.3994,1219.7898,998.4795,1224.7098,995.6877,1214.97,997.1494" style="stroke:#FFA500;stroke-width:1.0;"/><text fill="#000000" font-family="sans-serif" font-size="13" lengthAdjust="spacing" textLength="143" x="1566.5" y="1078.8545">&#31532;&#20108;&#35838;&#22530;&#26597;&#35810;&#19982;&#21442;&#19982;&#35831;&#27714;</text></g><!--link P3_Student_Extra to User--><g id="link_P3_Student_Extra_User"><path d="M1208.63,998.3394 C1226.95,1006.4594 1245.89,1017.0294 1261,1030.3594 C1280.15,1047.2494 1270.42,1064.2494 1291,1079.3594 C1589.3,1298.3194 2093.64,1188.5974 2181.95,1167.1174 " fill="none" id="P3_Student_Extra-to-User" style="stroke:#FFA500;stroke-width:1.0;"/><polygon fill="#FFA500" points="2187.78,1165.6994,2178.0896,1163.9398,2182.9217,1166.8811,2179.9803,1171.7131,2187.78,1165.6994" style="stroke:#FFA500;stroke-width:1.0;"/><text fill="#000000" font-family="sans-serif" font-size="13" lengthAdjust="spacing" textLength="156" x="1560" y="1185.8545">&#20010;&#24615;&#21270;&#27963;&#21160;&#25512;&#36865;&#12289;&#25253;&#21517;&#30830;&#35748;</text></g><!--link P3_Student_Extra to P_AI_Engine--><g id="link_P3_Student_Extra_P_AI_Engine"><path d="M1073.52,998.4294 C983.2,1024.1194 820.63,1053.6794 718,974.3594 C676.89,942.5794 704.95,910.4794 688,861.3594 C654.93,765.5194 606.7269,661.6783 583.0569,612.3783 " fill="none" id="P3_Student_Extra-to-P_AI_Engine" style="stroke:#FFA500;stroke-width:1.0;"/><polygon fill="#FFA500" points="580.46,606.9694,580.7495,616.814,582.6241,611.4768,587.9613,613.3514,580.46,606.9694" style="stroke:#FFA500;stroke-width:1.0;"/><text fill="#000000" font-family="sans-serif" font-size="13" lengthAdjust="spacing" textLength="167" x="770.5" y="970.8545">&#29992;&#25143;&#20852;&#36259;&#19982;&#27963;&#21160;&#25968;&#25454; (AI&#25512;&#33616;)</text></g><!--link P_AI_Engine to P3_Student_Extra--><g id="link_P_AI_Engine_P3_Student_Extra"><path d="M578.02,606.7594 C607.78,680.8394 692.04,886.5594 718,906.3594 C721.25,908.8394 913.6061,940.0866 1037.0261,959.9366 " fill="none" id="P_AI_Engine-to-P3_Student_Extra" style="stroke:#FFA500;stroke-width:1.0;"/><polygon fill="#FFA500" points="1042.95,960.8894,1034.6994,955.511,1038.0134,960.0954,1033.429,963.4095,1042.95,960.8894" style="stroke:#FFA500;stroke-width:1.0;"/><text fill="#000000" font-family="sans-serif" font-size="13" lengthAdjust="spacing" textLength="64" x="822" y="902.8545">AI&#25512;&#33616;&#32467;&#26524;</text></g><!--link P3_Student_Extra to DS_Activities--><g id="link_P3_Student_Extra_DS_Activities"><path d="M1216.43,955.6594 C1233.3,947.7494 1249.56,936.9694 1261,922.3594 C1306.41,864.3594 1261.88,827.0194 1291,759.3594 C1366.07,584.9494 1400.06,539.3494 1543,414.3594 C1555.02,403.8494 1564.2927,397.4943 1578.3227,389.9043 " fill="none" id="P3_Student_Extra-to-DS_Activities" style="stroke:#FFA500;stroke-width:1.0;"/><polygon fill="#FFA500" points="1583.6,387.0494,1573.7808,387.8136,1579.2023,389.4285,1577.5874,394.8499,1583.6,387.0494" style="stroke:#FFA500;stroke-width:1.0;"/><text fill="#000000" font-family="sans-serif" font-size="13" lengthAdjust="spacing" textLength="77" x="1363.5" y="439.8545">(&#35835;) &#27963;&#21160;&#20449;&#24687;</text></g><!--link P3_Student_Extra to DS_UserAcademic--><g id="link_P3_Student_Extra_DS_UserAcademic"><path d="M1257.38,982.4294 C1430.51,990.0494 1766.77,999.2094 2051,973.3594 C2073,971.3594 2090.7035,968.8446 2112.5335,964.9446 " fill="none" id="P3_Student_Extra-to-DS_UserAcademic" style="stroke:#FFA500;stroke-width:1.0;"/><polygon fill="#FFA500" points="2118.44,963.8894,2108.8768,961.5345,2113.5179,964.7687,2110.2838,969.4098,2118.44,963.8894" style="stroke:#FFA500;stroke-width:1.0;"/><text fill="#000000" font-family="sans-serif" font-size="13" lengthAdjust="spacing" textLength="103" x="1586.5" y="986.8545">(&#20889;) &#27963;&#21160;&#21442;&#19982;&#35760;&#24405;</text></g><!--link Organizer to P4_Org_Extra--><g id="link_Organizer_P4_Org_Extra"><path d="M2696.38,205.8094 C2669.43,221.8594 2634.57,240.1194 2601,250.3594 C2510.45,277.9794 2409.5446,287.8437 2329.3446,291.2637 " fill="none" id="Organizer-to-P4_Org_Extra" style="stroke:#FFA500;stroke-width:1.0;"/><polygon fill="#FFA500" points="2323.35,291.5194,2332.5122,295.1323,2328.3455,291.3064,2332.1714,287.1396,2323.35,291.5194" style="stroke:#FFA500;stroke-width:1.0;"/><text fill="#000000" font-family="sans-serif" font-size="13" lengthAdjust="spacing" textLength="117" x="2418.5" y="246.8545">&#27963;&#21160;&#21457;&#24067;&#19982;&#31649;&#29702;&#35831;&#27714;</text></g><!--link P4_Org_Extra to Organizer--><g id="link_P4_Org_Extra_Organizer"><path d="M2250.8,268.0894 C2279.69,254.4094 2317.66,238.1494 2353,228.3594 C2473.84,194.8894 2615.6725,182.0757 2690.3725,177.2557 " fill="none" id="P4_Org_Extra-to-Organizer" style="stroke:#FFA500;stroke-width:1.0;"/><polygon fill="#FFA500" points="2696.36,176.8694,2687.1211,173.4572,2691.3704,177.1913,2687.6362,181.4406,2696.36,176.8694" style="stroke:#FFA500;stroke-width:1.0;"/><text fill="#000000" font-family="sans-serif" font-size="13" lengthAdjust="spacing" textLength="155" x="2399.5" y="182.8545">&#27963;&#21160;&#20998;&#26512;&#25253;&#21578;&#12289;AI&#31574;&#21010;&#24314;&#35758;</text></g><!--link P4_Org_Extra to DS_Activities--><g id="link_P4_Org_Extra_DS_Activities"><path d="M2100.18,306.7294 C2083.75,308.9994 2066.91,311.2794 2051,313.3594 C1940.08,327.8494 1818.1291,342.46 1734.6291,352.26 " fill="none" id="P4_Org_Extra-to-DS_Activities" style="stroke:#FFA500;stroke-width:1.0;"/><polygon fill="#FFA500" points="1728.67,352.9594,1738.0749,355.883,1733.6359,352.3765,1737.1424,347.9376,1728.67,352.9594" style="stroke:#FFA500;stroke-width:1.0;"/><text fill="#000000" font-family="sans-serif" font-size="13" lengthAdjust="spacing" textLength="77" x="1868.5" y="309.8545">(&#20889;) &#27963;&#21160;&#20449;&#24687;</text></g><!--link DS_Activities to P4_Org_Extra--><g id="link_DS_Activities_P4_Org_Extra"><path d="M1728.6,380.1394 C1813.15,392.6694 1942.74,403.3094 2051,375.3594 C2093.94,364.2694 2132.7695,341.374 2161.8495,321.334 " fill="none" id="DS_Activities-to-P4_Org_Extra" style="stroke:#FFA500;stroke-width:1.0;"/><polygon fill="#FFA500" points="2166.79,317.9294,2157.1095,319.7427,2162.6729,320.7666,2161.649,326.33,2166.79,317.9294" style="stroke:#FFA500;stroke-width:1.0;"/><text fill="#000000" font-family="sans-serif" font-size="13" lengthAdjust="spacing" textLength="77" x="1868.5" y="371.8545">(&#35835;) &#27963;&#21160;&#25968;&#25454;</text></g><!--link P4_Org_Extra to P_AI_Engine--><g id="link_P4_Org_Extra_P_AI_Engine"><path d="M2082.8,287.4794 C1994.56,284.9494 1871.09,283.7794 1763,291.3594 C1664.5,298.2694 1634.46,285.1494 1543,322.3594 C1527.68,328.5894 1528.67,339.0694 1513,344.3594 C1487.04,353.1194 1047.32,351.3494 1020,353.3594 C885.03,363.2794 817.31,300.4094 718,392.3594 C670.03,436.7694 730.76,486.9094 688,536.3594 C678.6,547.2194 671.7241,552.8657 658.5641,559.0257 " fill="none" id="P4_Org_Extra-to-P_AI_Engine" style="stroke:#FFA500;stroke-width:1.0;"/><polygon fill="#FFA500" points="653.13,561.5694,662.977,561.3767,657.6585,559.4497,659.5855,554.1312,653.13,561.5694" style="stroke:#FFA500;stroke-width:1.0;"/><text fill="#000000" font-family="sans-serif" font-size="13" lengthAdjust="spacing" textLength="132" x="1336" y="340.8545">&#27963;&#21160;&#25968;&#25454; (AI&#20998;&#26512;/&#24314;&#35758;)</text></g><!--link P_AI_Engine to P4_Org_Extra--><g id="link_P_AI_Engine_P4_Org_Extra"><path d="M653.79,561.7294 C666.8,555.5494 678.89,547.3194 688,536.3594 C739.3,474.6794 658.71,412.4094 718,358.3594 C1062.19,44.6094 1297.59,297.7094 1763,280.3594 C1890.91,275.5894 1923.1,275.2494 2051,280.3594 C2063.53,280.8594 2070.6433,281.1897 2083.6733,282.0597 " fill="none" id="P_AI_Engine-to-P4_Org_Extra" style="stroke:#FFA500;stroke-width:1.0;"/><polygon fill="#FFA500" points="2089.66,282.4594,2080.9465,277.8687,2084.6711,282.1263,2080.4135,285.8509,2089.66,282.4594" style="stroke:#FFA500;stroke-width:1.0;"/><text fill="#000000" font-family="sans-serif" font-size="13" lengthAdjust="spacing" textLength="103" x="1350.5" y="221.8545">AI&#20998;&#26512;&#19982;&#24314;&#35758;&#32467;&#26524;</text></g><!--link Admin to P5_Admin_Config--><g id="link_Admin_P5_Admin_Config"><path d="M2180.84,1276.0394 C2107.92,1278.4394 1851.01,1286.3594 1639,1286.3594 C565.5,1286.3594 565.5,1286.3594 565.5,1286.3594 C364.3,1286.3594 195.1311,1071.1334 143.9011,998.9034 " fill="none" id="Admin-to-P5_Admin_Config" style="stroke:#FFA500;stroke-width:1.0;"/><polygon fill="#FFA500" points="140.43,994.0094,142.374,1003.6645,143.3226,998.0877,148.8994,999.0363,140.43,994.0094" style="stroke:#FFA500;stroke-width:1.0;"/><text fill="#000000" font-family="sans-serif" font-size="13" lengthAdjust="spacing" textLength="207" x="1037" y="1282.8545">&#26680;&#24515;&#25945;&#23398;&#25968;&#25454;&#12289;AI&#37197;&#32622;&#12289;&#30693;&#35782;&#24211;&#20869;&#23481;</text></g><!--link P5_Admin_Config to DS_KnowledgeRules--><g id="link_P5_Admin_Config_DS_KnowledgeRules"><path d="M186.56,953.5194 C361.39,902.8594 855.2371,759.7394 1052.3471,702.6194 " fill="none" id="P5_Admin_Config-to-DS_KnowledgeRules" style="stroke:#FFA500;stroke-width:1.0;"/><polygon fill="#FFA500" points="1058.11,700.9494,1048.3523,699.6125,1053.3076,702.3411,1050.579,707.2963,1058.11,700.9494" style="stroke:#FFA500;stroke-width:1.0;"/><text fill="#000000" font-family="sans-serif" font-size="13" lengthAdjust="spacing" textLength="193" x="470" y="806.8545">(&#20889;) &#26356;&#26032;&#25945;&#23398;&#36164;&#28304;&#12289;&#35268;&#21017;&#12289;AI&#31574;&#30053;</text></g><!--link P5_Admin_Config to DS_UserAcademic--><g id="link_P5_Admin_Config_DS_UserAcademic"><path d="M182.74,989.7994 C266.27,1014.7994 426.08,1056.3594 565.5,1056.3594 C565.5,1056.3594 565.5,1056.3594 1403,1056.3594 C1564.36,1056.3594 1602.23,1023.1794 1763,1009.3594 C1890.64,998.3894 1925.07,1020.8894 2051,997.3594 C2082.63,991.4494 2111.0628,982.3981 2138.7128,972.0181 " fill="none" id="P5_Admin_Config-to-DS_UserAcademic" style="stroke:#FFA500;stroke-width:1.0;"/><polygon fill="#FFA500" points="2144.33,969.9094,2134.4983,969.3277,2139.649,971.6667,2137.31,976.8173,2144.33,969.9094" style="stroke:#FFA500;stroke-width:1.0;"/><text fill="#000000" font-family="sans-serif" font-size="13" lengthAdjust="spacing" textLength="141" x="1070" y="1052.8545">(&#20889;) &#29992;&#25143;&#36134;&#25143;&#31649;&#29702; (&#37096;&#20998;)</text></g><!--link P5_Admin_Config to P_AI_Engine--><g id="link_P5_Admin_Config_P_AI_Engine"><path d="M149.63,949.4994 C225.45,882.1894 450.6828,682.2725 532.0528,610.0425 " fill="none" id="P5_Admin_Config-to-P_AI_Engine" style="stroke:#FFA500;stroke-width:1.0;"/><polygon fill="#FFA500" points="536.54,606.0594,527.1538,609.0426,532.8007,609.3787,532.4647,615.0255,536.54,606.0594" style="stroke:#FFA500;stroke-width:1.0;"/><text fill="#000000" font-family="sans-serif" font-size="13" lengthAdjust="spacing" textLength="158" x="256" y="714.8545">(&#25351;&#20196;) AI&#27169;&#22411;/&#37197;&#32622;&#26356;&#26032;&#25351;&#20196;</text></g><!--link Admin to P6_Admin_Analytics--><g id="link_Admin_P6_Admin_Analytics"><path d="M2223.16,1271.0294 C2300.58,1254.2094 2575.73,1192.6694 2601,1162.3594 C2645.61,1108.8594 2606.7,915.6394 2631,850.3594 C2651.56,795.1394 2692.0895,745.8974 2718.8595,716.9074 " fill="none" id="Admin-to-P6_Admin_Analytics" style="stroke:#FFA500;stroke-width:1.0;"/><polygon fill="#FFA500" points="2722.93,712.4994,2713.8855,716.3978,2719.5379,716.1728,2719.763,721.8251,2722.93,712.4994" style="stroke:#FFA500;stroke-width:1.0;"/><text fill="#000000" font-family="sans-serif" font-size="13" lengthAdjust="spacing" textLength="169" x="2392.5" y="1158.8545">&#31995;&#32479;&#20998;&#26512;&#35831;&#27714;&#12289;&#27963;&#21160;&#30417;&#31649;&#25351;&#20196;</text></g><!--link P6_Admin_Analytics to Admin--><g id="link_P6_Admin_Analytics_Admin"><path d="M2722.72,712.4194 C2695.74,741.3294 2650.9,794.8994 2631,850.3594 C2615.35,893.9794 2634.57,1234.4094 2601,1266.3594 C2494.11,1368.0894 2294.3409,1308.4161 2229.0809,1285.1261 " fill="none" id="P6_Admin_Analytics-to-Admin" style="stroke:#FFA500;stroke-width:1.0;"/><polygon fill="#FFA500" points="2223.43,1283.1094,2230.5619,1289.9017,2228.1391,1284.79,2233.2509,1282.3671,2223.43,1283.1094" style="stroke:#FFA500;stroke-width:1.0;"/><text fill="#000000" font-family="sans-serif" font-size="13" lengthAdjust="spacing" textLength="246" x="2354" y="1262.8545">&#20840;&#23616;&#23398;&#24773;&#27934;&#23519;&#25253;&#21578;&#12289;AI&#25928;&#26524;&#25253;&#21578;&#12289;&#31995;&#32479;&#29366;&#24577;</text></g><!--link DS_UserAcademic to P6_Admin_Analytics--><g id="link_DS_UserAcademic_P6_Admin_Analytics"><path d="M2285.54,922.8794 C2298.45,917.8794 2311.36,912.0494 2323,905.3594 C2338.3,896.5694 2338.26,889.0594 2353,879.3594 C2467.6,803.9594 2611.2338,742.5743 2688.1438,712.0243 " fill="none" id="DS_UserAcademic-to-P6_Admin_Analytics" style="stroke:#FFA500;stroke-width:1.0;"/><polygon fill="#FFA500" points="2693.72,709.8094,2683.8791,709.4144,2689.0732,711.6552,2686.8323,716.8493,2693.72,709.8094" style="stroke:#FFA500;stroke-width:1.0;"/><text fill="#000000" font-family="sans-serif" font-size="13" lengthAdjust="spacing" textLength="129" x="2412.5" y="745.8545">(&#35835;) &#20840;&#23616;&#29992;&#25143;&#23398;&#19994;&#25968;&#25454;</text></g><!--link DS_KnowledgeRules to P6_Admin_Analytics--><g id="link_DS_KnowledgeRules_P6_Admin_Analytics"><path d="M1238.21,699.4794 C1319.13,716.7194 1437.9,739.0694 1543,747.3594 C1960.4,780.2794 2455.0367,727.4168 2652.4767,702.6268 " fill="none" id="DS_KnowledgeRules-to-P6_Admin_Analytics" style="stroke:#FFA500;stroke-width:1.0;"/><polygon fill="#FFA500" points="2658.43,701.8794,2649.0018,699.0317,2653.469,702.5023,2649.9984,706.9694,2658.43,701.8794" style="stroke:#FFA500;stroke-width:1.0;"/><text fill="#000000" font-family="sans-serif" font-size="13" lengthAdjust="spacing" textLength="103" x="1855.5" y="749.8545">(&#35835;) &#31995;&#32479;&#35268;&#21017;&#37197;&#32622;</text></g><!--link DS_Activities to P6_Admin_Analytics--><g id="link_DS_Activities_P6_Admin_Analytics"><path d="M1706.56,386.9194 C1724.69,392.4594 1744.43,397.7794 1763,401.3594 C2129.99,472.0694 2279.87,280.1594 2601,471.3594 C2677.75,517.0594 2719.2465,615.9632 2735.3165,662.1032 " fill="none" id="DS_Activities-to-P6_Admin_Analytics" style="stroke:#FFA500;stroke-width:1.0;"/><polygon fill="#FFA500" points="2737.29,667.7694,2738.1073,657.9545,2735.6455,663.0476,2730.5524,660.5858,2737.29,667.7694" style="stroke:#FFA500;stroke-width:1.0;"/><text fill="#000000" font-family="sans-serif" font-size="13" lengthAdjust="spacing" textLength="103" x="2150.5" y="380.8545">(&#35835;) &#20840;&#23616;&#27963;&#21160;&#25968;&#25454;</text></g><!--link P6_Admin_Analytics to P_AI_Engine--><g id="link_P6_Admin_Analytics_P_AI_Engine"><path d="M2733.49,667.7294 C2713.33,629.1694 2666.47,551.7794 2601,519.3594 C2467.43,453.2094 1410.01,459.8594 1261,456.3594 C1140.37,453.5294 817.18,387.6294 718,456.3594 C686.79,477.9894 714.97,509.6294 688,536.3594 C677.4,546.8694 669.5908,552.4706 655.7208,558.5806 " fill="none" id="P6_Admin_Analytics-to-P_AI_Engine" style="stroke:#FFA500;stroke-width:1.0;"/><polygon fill="#FFA500" points="650.23,560.9994,660.0788,561.0317,654.8057,558.9837,656.8537,553.7106,650.23,560.9994" style="stroke:#FFA500;stroke-width:1.0;"/><text fill="#000000" font-family="sans-serif" font-size="13" lengthAdjust="spacing" textLength="102" x="1587" y="455.8545">&#20998;&#26512;&#35831;&#27714; (AI&#27934;&#23519;)</text></g><!--link P_AI_Engine to P6_Admin_Analytics--><g id="link_P_AI_Engine_P6_Admin_Analytics"><path d="M645.07,559.9994 C660.2,553.8994 675.29,546.1394 688,536.3594 C706.47,522.1494 697.34,504.1394 718,493.3594 C824.99,437.5494 1140.6,485.3994 1261,493.3594 C1801.85,529.1094 2440.5114,636.3859 2660.5514,675.2459 " fill="none" id="P_AI_Engine-to-P6_Admin_Analytics" style="stroke:#FFA500;stroke-width:1.0;"/><polygon fill="#FFA500" points="2666.46,676.2894,2658.2928,670.7851,2661.5362,675.4198,2656.9015,678.6632,2666.46,676.2894" style="stroke:#FFA500;stroke-width:1.0;"/><text fill="#000000" font-family="sans-serif" font-size="13" lengthAdjust="spacing" textLength="64" x="1606" y="514.8545">AI&#27934;&#23519;&#32467;&#26524;</text></g><!--link P_AI_Engine to DS_UserAcademic--><g id="link_P_AI_Engine_DS_UserAcademic"><path d="M607.98,605.3994 C637.53,622.7194 679.06,645.1294 718,659.3594 C747.02,669.9694 1237.1,759.7794 1261,779.3594 C1286.55,800.2894 1263.76,828.6694 1291,847.3594 C1331.54,875.1794 1683.89,865.9594 1733,868.3594 C1874.34,875.2694 1917.15,838.4394 2051,884.3594 C2066.39,889.6394 2066.49,897.9894 2081,905.3594 C2093.76,911.8394 2102.1411,915.5921 2115.9611,920.6921 " fill="none" id="P_AI_Engine-to-DS_UserAcademic" style="stroke:#FFA500;stroke-width:1.0;"/><polygon fill="#FFA500" points="2121.59,922.7694,2114.5314,915.9009,2116.8992,921.0383,2111.7617,923.4061,2121.59,922.7694" style="stroke:#FFA500;stroke-width:1.0;"/><text fill="#000000" font-family="sans-serif" font-size="13" lengthAdjust="spacing" textLength="167" x="1318.5" y="843.8545">(&#35835;) &#29992;&#25143;&#25968;&#25454; (&#29992;&#20110;&#27169;&#22411;&#36755;&#20837;)</text></g><!--link P_AI_Engine to DS_KnowledgeRules--><g id="link_P_AI_Engine_DS_KnowledgeRules"><path d="M662.92,596.5394 C768.29,614.4094 931.0844,642.0163 1036.9444,659.9663 " fill="none" id="P_AI_Engine-to-DS_KnowledgeRules" style="stroke:#FFA500;stroke-width:1.0;"/><polygon fill="#FFA500" points="1042.86,660.9694,1034.6554,655.5211,1037.9304,660.1335,1033.3179,663.4085,1042.86,660.9694" style="stroke:#FFA500;stroke-width:1.0;"/><text fill="#000000" font-family="sans-serif" font-size="13" lengthAdjust="spacing" textLength="270" x="719" y="603.8545">(&#35835;) &#30693;&#35782;&#12289;&#35268;&#21017;&#12289;AI&#27169;&#22411;&#21442;&#25968; (&#29992;&#20110;&#25512;&#29702;&#19982;&#35745;&#31639;)</text></g><!--link P_AI_Engine to DS_Activities--><g id="link_P_AI_Engine_DS_Activities"><path d="M652.11,561.4894 C665.54,555.3294 678.21,547.1694 688,536.3594 C724.03,496.5694 676.47,453.3794 718,419.3594 C786.43,363.3094 1424.85,384.6594 1513,377.3594 C1524.12,376.4394 1529.8116,375.9348 1541.3516,374.7448 " fill="none" id="P_AI_Engine-to-DS_Activities" style="stroke:#FFA500;stroke-width:1.0;"/><polygon fill="#FFA500" points="1547.32,374.1294,1537.9572,371.0737,1542.3464,374.6423,1538.7778,379.0315,1547.32,374.1294" style="stroke:#FFA500;stroke-width:1.0;"/><text fill="#000000" font-family="sans-serif" font-size="13" lengthAdjust="spacing" textLength="167" x="1057" y="375.8545">(&#35835;) &#27963;&#21160;&#25968;&#25454; (&#29992;&#20110;&#27169;&#22411;&#36755;&#20837;)</text></g><!--SRC=[bLZVJzjM57xtNt75ov87H7_k0I6aj7GJMgLMHNkOD2aoYSci1hjoJ3jMLGeaWJI540gX0pfeEcZJjIGWA8Eaq3zckTVcQV_2phtNTcp7RhK-DRRFTxvxpdT-NDBIX8vq5MbowXST9MLDIkYogWX2vhwiF10rSH9DPQI4c97GOm71lnjYudvAKwUKv4qrhMheDZNyIKgdrKVylQeb9Os_kwE9IafYZsEQfZxoF7tYSf4KTN7yApx6T4bAtqXFIJrkxgdJ8d_ZnXGJEhnxtFFrZJIWXxlvNXEd0KVGPJqjeJxZmuTB-62MLFV9OeDydC6RvoXoMteefT4bDFBTI1Jr8xBUCdDdfBgEIxLOIbBqFa7Wtl7U6sDr6uaPz6D6qgo7HgDcLER8sYbz7ajEoehrWZhhj1RCvZb-DMkqyqPxtimM-kXdTxIKgCY_0OP0CmG1fEHw71k7RQEzRPwV6jM5FdPsEtbzToyFejWeUNM2F-U0LkTaWwmsoS8CURa8rip9tSlns6WybX2JqgIS06D5rILB6Ug4x_KWmfNtdC15zYbm_YSxmt7DjtbSV0u_VrQ06lcZmXqvxt5nZcnLwC_c9tnIn0kd5uL5mSFr2kNQQJq3PiRgeTdyktDI9YzsZVepDzqhZC_4X2Xh6O_vLMfkdXTmwPqxfDmMHNXMZFVDACUv6X_Jfv8GllYjNtLDz41T6qIUhF3SMK1EZhfOr-AGgW2Swu33aiEL1EU9ZSAnZRC6X-JMr-DC3_6RgZ8Xfpm0tze0nkOoARzb0EHe2pUttI7vrWA8AM9wMfSJ6MzSQS1kAIbPaLnYsCc3V_ofIbRA7AJx5HeQYesYCKbxA2UauM5R4kEghgkJJ1DkHB9KwPnlubOL2iROoCT6ZSOBSbY5J9Dw3Myz8-KwU6B2CBPtpUOSTmqAmgNDVpyjcA_Vuy9nfxrcVfw7L9lxEMErJW_Wj8U-aJ6GCJmbHIe9IySiehYrmjYFZCLfhOMgsFSUPBptEvwjSqnZjOrpIrofni4YPLwi6ErtZ7DNvgU7vCMnMQiRvNtw2HCc_8TBrMpiuxEgiVVKpnn4JKjrxutvCKzQ5U3FAcNTYaMN_m-A-YWj9LFIlQcqbEaDUiydzY7mzYakjA6pa5eH-01R8DRvN2CpJSgJ5ICxYbLvhHNu1MdQMpEgkzq3C5RmyoAx0M7XzFo7kUgj2tBKngLwJoPYC4mUoheiCHr-W_hx-wsUs6djT5hFwGDuGHC2_ntsjHX4pyKop1GErCZ1B8hmF93y4guiqrEoTcDiDiYhUPeSrbqkNcRXsoXW-o2f5-Pk47LE_YBPjtXXpGAqmsRvBEtYvPBJfK2xvcB5YI9kjyn68nZUNJ_E2UogjmyH6-L41pWmO-go2mm6sB22CTehPEibYZYCkrnPBmqvja_v01Z1S-jHH3QFoDe-Bm3ErYa37XckQ03r8mIoZ9ZDTXIvuVZXkRrNk5z221IpMyOyCLpUWaT5xi504-qQ93p-JjNYcIMyUqRZvR5ngSGoOyC4ycUKZacMpZ9hzlAXj5Ivc7iUYE8L0mSRiAm2DC7o6oW6tvdyMk2PfxmObsWWcJ05k1kN4nftrdgpxgFZJlhNqXrYscqztcJwfZFoDHxQdLxJMR0qwuII7jvl5bJuLjSgrozuIg6CAej6hM4sTi8W_FbaAYyScST_qXN5rGLfEhzGsxsdiZ_d6GtpxscgJlIuOwiKmYs3ov_PMk7ZbUxqwi25rDEwdSMK7ykr_e036tePd-HexR1DfviYzyVKkelbcB8UwRGtDggWsNUxhn-Y9pok8phXyNuKmDiTL4VDFRwyKl3dtchld6gW1Bm-RGigPMPZwQ2R2_lQu8a_M_SuddTvf9JOViTt3awCnP2ldNJSsui7dYlWnYdbwCEmGkghOk_WSEyqzZXUT-qLuR0XlOYMb7dqXgvZxCWmyNDK2T4G96yU8cHXljFUYT9wObld03-lHPQz5Bo1wrcQaRrhyvHqPmRBCIpWGCn2Ga7c59NZm_mlrF51bcOWLx3szQwSIRK8ENOUM0i-6p5XZJU8h3KmcQV_CtZ3iQoB9CibZrzmtNoDZR-6WcFbsvXSGMTTb4Kji8I2tDi6_lfnxZlifaExDTzM-Vg_aUVRhbLS4NeNgUJT5n5O-Q6JmUeQjKhFpoP0qJrJ4UwCr4UPIzCyNy65tMWmLc_HSJHMjDv2usZGmi69uu5TjbXFhy4zBCH9w2pv4jqdWi1k9B3ZZqrdT6boHCeaDFa1-yCHGaFZmm5_DHaQ61yM92N9BZF2Vm00]--></g></svg>