<?xml version="1.0" encoding="us-ascii" standalone="no"?><svg xmlns="http://www.w3.org/2000/svg" xmlns:xlink="http://www.w3.org/1999/xlink" contentStyleType="text/css" height="306px" preserveAspectRatio="none" style="width:1894px;height:306px;background:#FFFFFF;" version="1.1" viewBox="0 0 1894 306" width="1894px" zoomAndPan="magnify"><defs/><g><text fill="#000000" font-family="sans-serif" font-size="14" font-weight="bold" lengthAdjust="spacing" textLength="314.8125" x="782.5938" y="24.5332">&#19978;&#19979;&#25991;&#25968;&#25454;&#27969;&#22270; (Context DFD) - &#26234;&#33021;&#25945;&#21153;Agent</text><!--entity User--><g id="elem_User"><ellipse cx="20" cy="125.7594" fill="#D3D3D3" rx="8" ry="8" style="stroke:#000000;stroke-width:0.5;"/><path d="M20,133.7594 L20,160.7594 M7,141.7594 L33,141.7594 M20,160.7594 L7,175.7594 M20,160.7594 L33,175.7594 " fill="none" style="stroke:#000000;stroke-width:0.5;"/><text fill="#000000" font-family="sans-serif" font-size="14" lengthAdjust="spacing" textLength="28" x="6" y="191.7926">&#23398;&#29983;</text></g><!--entity Admin--><g id="elem_Admin"><ellipse cx="1838" cy="68.7594" fill="#D3D3D3" rx="8" ry="8" style="stroke:#000000;stroke-width:0.5;"/><path d="M1838,76.7594 L1838,103.7594 M1825,84.7594 L1851,84.7594 M1838,103.7594 L1825,118.7594 M1838,103.7594 L1851,118.7594 " fill="none" style="stroke:#000000;stroke-width:0.5;"/><text fill="#000000" font-family="sans-serif" font-size="14" lengthAdjust="spacing" textLength="42" x="1817" y="134.7926">&#31649;&#29702;&#26041;</text></g><!--entity Organizer--><g id="elem_Organizer"><ellipse cx="1838" cy="182.7594" fill="#D3D3D3" rx="8" ry="8" style="stroke:#000000;stroke-width:0.5;"/><path d="M1838,190.7594 L1838,217.7594 M1825,198.7594 L1851,198.7594 M1838,217.7594 L1825,232.7594 M1838,217.7594 L1851,232.7594 " fill="none" style="stroke:#000000;stroke-width:0.5;"/><text fill="#000000" font-family="sans-serif" font-size="14" lengthAdjust="spacing" textLength="98" x="1789" y="248.7926">&#31532;&#20108;&#35838;&#22530;&#32452;&#32455;&#32773;</text></g><g id="elem_SystemProcess"><ellipse cx="930.7516" cy="156.2097" fill="#ADD8E6" rx="82.7516" ry="18.9503" style="stroke:#0000FF;stroke-width:0.5;"/><text fill="#000000" font-family="sans-serif" font-size="14" lengthAdjust="spacing" textLength="121" x="870.2516" y="159.9382">&#26234;&#33021;&#25945;&#21153;Agent&#31995;&#32479;</text></g><!--link User to SystemProcess--><g id="link_User_SystemProcess"><path d="M34.2,156.2594 C123.66,156.2594 637.66,156.2594 841.79,156.2594 " fill="none" id="User-to-SystemProcess" style="stroke:#0000FF;stroke-width:1.0;"/><polygon fill="#0000FF" points="847.79,156.2594,838.79,152.2594,842.79,156.2594,838.79,160.2594,847.79,156.2594" style="stroke:#0000FF;stroke-width:1.0;"/><text fill="#000000" font-family="sans-serif" font-size="13" lengthAdjust="spacing" textLength="441" x="220.5" y="152.7545">&#23398;&#29983;&#36755;&#20837; (&#20010;&#20154;&#20449;&#24687;&#12289;&#20852;&#36259;&#12289;&#36873;&#35838;&#24847;&#21521;&#12289;&#26597;&#35810;&#35831;&#27714;&#12289;&#30003;&#35831;&#26448;&#26009;&#12289;&#24179;&#26102;&#25104;&#32489;&#35760;&#24405;)</text></g><!--link SystemProcess to User--><g id="link_SystemProcess_User"><path d="M878.01,170.9194 C859.26,175.5194 837.83,179.9894 818,182.2594 C485.07,220.3894 386.8,272.2594 64,182.2594 C53.08,179.2094 47.0355,176.0465 38.9355,170.2365 " fill="none" id="SystemProcess-to-User" style="stroke:#0000FF;stroke-width:1.0;"/><polygon fill="#0000FF" points="34.06,166.7394,39.0418,175.2353,38.1229,169.6536,43.7046,168.7347,34.06,166.7394" style="stroke:#0000FF;stroke-width:1.0;"/><text fill="#000000" font-family="sans-serif" font-size="13" lengthAdjust="spacing" textLength="752" x="65" y="178.7545">AI&#36755;&#20986; (&#36873;&#35838;&#25512;&#33616;&#12289;&#35838;&#31243;&#20449;&#24687;&#12289;&#25945;&#26448;&#23545;&#27604;&#12289;&#23398;&#19994;&#24635;&#32467;&#19982;&#24314;&#35758;&#12289;&#31532;&#20108;&#35838;&#22530;&#25512;&#36865;&#12289;&#23548;&#24072;&#20449;&#24687;&#12289;&#26085;&#31243;&#25552;&#37266;&#12289;&#30003;&#35831;&#29366;&#24577;&#19982;&#21453;&#39304;&#12289;&#24179;&#26102;&#25104;&#32489;&#20998;&#26512;)</text></g><!--link Admin to SystemProcess--><g id="link_Admin_SystemProcess"><path d="M1816.75,109.5694 C1801.35,116.8394 1779.4,126.0194 1759,130.2594 C1618.53,159.4394 1199.7698,158.9641 1019.8898,157.3241 " fill="none" id="Admin-to-SystemProcess" style="stroke:#0000FF;stroke-width:1.0;"/><polygon fill="#0000FF" points="1013.89,157.2694,1022.8532,161.3513,1018.8898,157.315,1022.9261,153.3516,1013.89,157.2694" style="stroke:#0000FF;stroke-width:1.0;"/><text fill="#000000" font-family="sans-serif" font-size="13" lengthAdjust="spacing" textLength="713" x="1045" y="126.7545">&#31649;&#29702;&#36755;&#20837; (&#22521;&#20859;&#26041;&#26696;&#12289;&#35838;&#31243;&#25968;&#25454;&#12289;&#25945;&#26448;&#25968;&#25454;&#12289;&#23548;&#24072;&#25968;&#25454;&#12289;&#22870;&#23398;&#37329;&#35268;&#21017;&#12289;&#31532;&#20108;&#35838;&#22530;&#23457;&#26680;&#25351;&#20196;&#12289;AI&#31639;&#27861;&#21442;&#25968;&#12289;&#31995;&#32479;&#37197;&#32622;&#12289;&#20844;&#21578;&#20869;&#23481;)</text></g><!--link SystemProcess to Admin--><g id="link_SystemProcess_Admin"><path d="M963.72,138.6694 C985.56,127.5694 1015.64,114.2494 1044,108.2594 C1345.42,44.6094 1719.7755,84.6016 1810.8155,95.8816 " fill="none" id="SystemProcess-to-Admin" style="stroke:#0000FF;stroke-width:1.0;"/><polygon fill="#0000FF" points="1816.77,96.6194,1808.3301,91.5431,1811.8079,96.0046,1807.3465,99.4824,1816.77,96.6194" style="stroke:#0000FF;stroke-width:1.0;"/><text fill="#000000" font-family="sans-serif" font-size="13" lengthAdjust="spacing" textLength="440" x="1181.5" y="70.7545">&#31995;&#32479;&#21453;&#39304; (&#20840;&#23616;&#25968;&#25454;&#32479;&#35745;&#12289;AI&#27934;&#23519;&#25253;&#21578;&#12289;&#29992;&#25143;&#34892;&#20026;&#20998;&#26512;&#12289;&#31995;&#32479;&#26085;&#24535;&#12289;&#23457;&#26680;&#32467;&#26524;)</text></g><!--link Organizer to SystemProcess--><g id="link_Organizer_SystemProcess"><path d="M1788.86,237.1294 C1779.19,240.9094 1768.94,244.2394 1759,246.2594 C1603.28,277.8394 1193.87,299.0094 1044,246.2594 C1004,232.1794 971.7635,201.5604 951.9035,179.5904 " fill="none" id="Organizer-to-SystemProcess" style="stroke:#0000FF;stroke-width:1.0;"/><polygon fill="#0000FF" points="947.88,175.1394,950.9479,184.4982,951.2329,178.8485,956.8826,179.1335,947.88,175.1394" style="stroke:#0000FF;stroke-width:1.0;"/><text fill="#000000" font-family="sans-serif" font-size="13" lengthAdjust="spacing" textLength="246" x="1278.5" y="242.7545">&#32452;&#32455;&#32773;&#36755;&#20837; (&#31532;&#20108;&#35838;&#22530;&#27963;&#21160;&#20449;&#24687;&#12289;&#31574;&#21010;&#38656;&#27714;)</text></g><!--link SystemProcess to Organizer--><g id="link_SystemProcess_Organizer"><path d="M982.29,171.1994 C1001.44,176.2594 1023.56,181.3594 1044,184.2594 C1323.97,223.9294 1658.7626,218.8062 1782.8726,215.1462 " fill="none" id="SystemProcess-to-Organizer" style="stroke:#0000FF;stroke-width:1.0;"/><polygon fill="#0000FF" points="1788.87,214.9694,1779.756,211.2364,1783.8722,215.1168,1779.9918,219.2329,1788.87,214.9694" style="stroke:#0000FF;stroke-width:1.0;"/><text fill="#000000" font-family="sans-serif" font-size="13" lengthAdjust="spacing" textLength="310" x="1246.5" y="180.7545">AI&#36741;&#21161;&#36755;&#20986; (&#27963;&#21160;&#25968;&#25454;&#20998;&#26512;&#12289;&#31574;&#21010;&#24314;&#35758;&#12289;&#23398;&#29983;&#21453;&#39304;&#27719;&#24635;)</text></g><!--SRC=[TLFVJjfG6B_lKvnuCxtW1RnOWfej9YPRikm16kXO8rBJrcpEB2cEGeSY-0S8pebim-6YhGQdXKvzcFMSKzvYNtkWYCDUdVETy_t-dQz9uOsAL0d9OkAjYkAYBCHKKKfndB8effPvcLz2AueGunK1hN48lXa-jfYGfPLKV5PAIZ9Qy1jdaYi2EvNak22pax0ObMNftRtQntlWV4o5yjgOPk1vdF2vpA-Eu0GS2r8oAIvBo-pYSraGm8Wggaa1kNRUjJT89KVAvwHWajzf_EKMJSvAALLuhwAvPtDJA898hUjzkY7b6iuteWaXfN8S4uZFZkbU7V4AUgq8Shz8pGOjPKcbuzUZyIKnrJ-OeAUdRdVJisxnqJfrCjJ9UPe-uLzx8IVubFW1CBX1hXF_iTAsGvrwSF_Lgg8AIozbAIOe2iSzGP58fA_6jRVOHRgV2Ltvvvol4HPFHxlHTB_Hkzt5UXDDklOljzjrxneaRVtLqbY_zAw-mwAdVGRf95F4fMtOadhJixvvrZMvM8SjtMlxwwybKgdvNPqsgLuHeqIT4yyynpVbAMwKrXSIA9f6qNcVEzT5atsEhPPNA04Ah6bh8vG2MG01jZh4slCvpevTUvzeO7ONN6EdwvccB-LUp03LqzB-PUiFjeqXLBK9oAHOwcLtGlKqVqMqj0zLBFIEZGSsi94bXwMfGThXCpyUUF3uOnDdpOF4SRs3TGUWICC8NJEeq7MuPKQ6ssO5SkZbjhsV6MpK7jZ7PeCSsMGpvpe_u2WwJyqgQPTnSHq0_Bk1y9vUe3S1c7wAj_CugsEpC-wzc26G7xInb42-ti8N6bC4PSzi15JayX1RTP9l0cGGSOiOrrvZqxMxBCgG7nu3trLz_a0kF2SvF1W6FUwlUJpqy5SQ7_m0O93zoB1SEZZV2cU4dbMmiTCxq632nwKnP68ZhEFyoM2G6HHJDdGR08PpoduxbYAvoC4WW-T_]--></g></svg>