<?xml version="1.0" encoding="us-ascii" standalone="no"?><svg xmlns="http://www.w3.org/2000/svg" xmlns:xlink="http://www.w3.org/1999/xlink" contentStyleType="text/css" height="1393px" preserveAspectRatio="none" style="width:1354px;height:1393px;background:#FFFFFF;" version="1.1" viewBox="0 0 1354 1393" width="1354px" zoomAndPan="magnify"><defs/><g><!--cluster ????Agent??--><g id="cluster_&#26234;&#33021;&#25945;&#21153;Agent&#31995;&#32479;"><rect fill="none" height="1287" rx="2.5" ry="2.5" style="stroke:#181818;stroke-width:1.0;" width="1197" x="151" y="7"/><text fill="#000000" font-family="sans-serif" font-size="14" font-weight="bold" lengthAdjust="spacing" textLength="127.625" x="685.6875" y="23.5332">&#26234;&#33021;&#25945;&#21153;Agent&#31995;&#32479;</text></g><!--cluster ????AI????--><g id="cluster_&#23398;&#29983;&#26680;&#24515;AI&#23398;&#19994;&#26381;&#21153;"><path d="M190,51 L319.5,51 A3.75,3.75 0 0 1 322,53.5 L329,74.6094 L1030.5,74.6094 A2.5,2.5 0 0 1 1033,77.1094 L1033,504.5 A2.5,2.5 0 0 1 1030.5,507 L190,507 A2.5,2.5 0 0 1 187.5,504.5 L187.5,53.5 A2.5,2.5 0 0 1 190,51 " fill="none" style="stroke:#000000;stroke-width:1.5;"/><line style="stroke:#000000;stroke-width:1.5;" x1="187.5" x2="329" y1="74.6094" y2="74.6094"/><text fill="#000000" font-family="sans-serif" font-size="14" font-weight="bold" lengthAdjust="spacing" textLength="128.5" x="191.5" y="67.5332">&#23398;&#29983;&#26680;&#24515;AI&#23398;&#19994;&#26381;&#21153;</text></g><!--cluster ????????--><g id="cluster_&#23398;&#29983;&#31532;&#20108;&#35838;&#22530;&#26381;&#21153;"><path d="M190,531 L306.5,531 A3.75,3.75 0 0 1 309,533.5 L316,554.6094 L933.5,554.6094 A2.5,2.5 0 0 1 936,557.1094 L936,626.5 A2.5,2.5 0 0 1 933.5,629 L190,629 A2.5,2.5 0 0 1 187.5,626.5 L187.5,533.5 A2.5,2.5 0 0 1 190,531 " fill="none" style="stroke:#000000;stroke-width:1.5;"/><line style="stroke:#000000;stroke-width:1.5;" x1="187.5" x2="316" y1="554.6094" y2="554.6094"/><text fill="#000000" font-family="sans-serif" font-size="14" font-weight="bold" lengthAdjust="spacing" textLength="115.5" x="191.5" y="547.5332">&#23398;&#29983;&#31532;&#20108;&#35838;&#22530;&#26381;&#21153;</text></g><!--cluster ?????????--><g id="cluster_&#31532;&#20108;&#35838;&#22530;&#32452;&#32455;&#32773;&#26381;&#21153;"><path d="M177.5,653 L308.4375,653 A3.75,3.75 0 0 1 310.9375,655.5 L317.9375,676.6094 L946.5,676.6094 A2.5,2.5 0 0 1 949,679.1094 L949,754.5 A2.5,2.5 0 0 1 946.5,757 L177.5,757 A2.5,2.5 0 0 1 175,754.5 L175,655.5 A2.5,2.5 0 0 1 177.5,653 " fill="none" style="stroke:#000000;stroke-width:1.5;"/><line style="stroke:#000000;stroke-width:1.5;" x1="175" x2="317.9375" y1="676.6094" y2="676.6094"/><text fill="#000000" font-family="sans-serif" font-size="14" font-weight="bold" lengthAdjust="spacing" textLength="129.9375" x="179" y="669.5332">&#31532;&#20108;&#35838;&#22530;&#32452;&#32455;&#32773;&#26381;&#21153;</text></g><!--cluster ???????--><g id="cluster_&#31649;&#29702;&#26041;&#26680;&#24515;&#21151;&#33021;"><path d="M677,781 L779.0625,781 A3.75,3.75 0 0 1 781.5625,783.5 L788.5625,804.6094 L1321.5,804.6094 A2.5,2.5 0 0 1 1324,807.1094 L1324,1267.5 A2.5,2.5 0 0 1 1321.5,1270 L677,1270 A2.5,2.5 0 0 1 674.5,1267.5 L674.5,783.5 A2.5,2.5 0 0 1 677,781 " fill="none" style="stroke:#000000;stroke-width:1.5;"/><line style="stroke:#000000;stroke-width:1.5;" x1="674.5" x2="788.5625" y1="804.6094" y2="804.6094"/><text fill="#000000" font-family="sans-serif" font-size="14" font-weight="bold" lengthAdjust="spacing" textLength="101.0625" x="678.5" y="797.5332">&#31649;&#29702;&#26041;&#26680;&#24515;&#21151;&#33021;</text></g><g id="elem_UC1_AI_CourseAndPlan"><ellipse cx="305.9659" cy="133.8932" fill="#F1F1F1" rx="89.9659" ry="20.3932" style="stroke:#181818;stroke-width:0.5;"/><text fill="#000000" font-family="sans-serif" font-size="14" lengthAdjust="spacing" textLength="138" x="236.9659" y="137.6217">AI&#26234;&#33021;&#36873;&#35838;&#19982;&#23398;&#19994;&#35268;&#21010;</text></g><g id="elem_GMN8"><path d="M671,87.5 L671,123.7 L395.8,132.46 L671,131.7 L671,162.9063 A0,0 0 0 0 671,162.9063 L985,162.9063 A0,0 0 0 0 985,162.9063 L985,97.5 L975,87.5 L671,87.5 A0,0 0 0 0 671,87.5 " fill="#FEFFDD" style="stroke:#181818;stroke-width:0.5;"/><path d="M975,87.5 L975,97.5 L985,97.5 L975,87.5 " fill="#FEFFDD" style="stroke:#181818;stroke-width:0.5;"/><text fill="#000000" font-family="sans-serif" font-size="13" lengthAdjust="spacing" textLength="293" x="677" y="105.9951">- AI&#20998;&#26512;&#20010;&#20154;&#30011;&#20687;&#19982;&#22521;&#20859;&#26041;&#26696;&#65292;&#25552;&#20379;&#20010;&#24615;&#21270;&#36873;&#35838;&#24314;&#35758;</text><text fill="#000000" font-family="sans-serif" font-size="13" lengthAdjust="spacing" textLength="202" x="677" y="122.3467">- AI&#35299;&#35835;&#35838;&#31243;&#22823;&#32434;&#19982;&#35780;&#20215;&#65292;&#36741;&#21161;&#20915;&#31574;</text><text fill="#000000" font-family="sans-serif" font-size="13" lengthAdjust="spacing" textLength="202" x="677" y="138.6982">- &#19982;AI&#20132;&#20114;&#20248;&#21270;&#36873;&#35838;&#26041;&#26696;&#19982;&#23398;&#19994;&#36335;&#24452;</text><text fill="#000000" font-family="sans-serif" font-size="13" lengthAdjust="spacing" textLength="241" x="677" y="155.0498">- AI&#20998;&#26512;&#22521;&#20859;&#26041;&#26696;&#23436;&#25104;&#24230;&#65292;&#25552;&#20379;&#39044;&#35686;&#19982;&#24314;&#35758;</text></g><g id="elem_UC2_AI_TextbookSupport"><ellipse cx="305.9659" cy="222.8932" fill="#F1F1F1" rx="89.9659" ry="20.3932" style="stroke:#181818;stroke-width:0.5;"/><text fill="#000000" font-family="sans-serif" font-size="14" lengthAdjust="spacing" textLength="138" x="236.9659" y="226.6217">AI&#25945;&#26448;&#25512;&#33616;&#19982;&#23545;&#27604;&#20998;&#26512;</text></g><g id="elem_GMN12"><path d="M716.5,197.5 L716.5,215.85 L396.1,222.31 L716.5,223.85 L716.5,240.2031 A0,0 0 0 0 716.5,240.2031 L939.5,240.2031 A0,0 0 0 0 939.5,240.2031 L939.5,207.5 L929.5,197.5 L716.5,197.5 A0,0 0 0 0 716.5,197.5 " fill="#FEFFDD" style="stroke:#181818;stroke-width:0.5;"/><path d="M929.5,197.5 L929.5,207.5 L939.5,207.5 L929.5,197.5 " fill="#FEFFDD" style="stroke:#181818;stroke-width:0.5;"/><text fill="#000000" font-family="sans-serif" font-size="13" lengthAdjust="spacing" textLength="189" x="722.5" y="215.9951">- AI&#26681;&#25454;&#35838;&#31243;&#19982;&#20010;&#20154;&#20559;&#22909;&#25512;&#33616;&#25945;&#26448;</text><text fill="#000000" font-family="sans-serif" font-size="13" lengthAdjust="spacing" textLength="202" x="722.5" y="232.3467">- AI&#25552;&#20379;&#25945;&#26448;&#27010;&#35201;&#19982;&#22810;&#32500;&#24230;&#23545;&#27604;&#25253;&#21578;</text></g><g id="elem_UC3_AI_AcademicAnalytics"><ellipse cx="305.9659" cy="306.8932" fill="#F1F1F1" rx="89.9659" ry="20.3932" style="stroke:#181818;stroke-width:0.5;"/><text fill="#000000" font-family="sans-serif" font-size="14" lengthAdjust="spacing" textLength="138" x="236.9659" y="310.6217">AI&#23398;&#19994;&#25253;&#21578;&#19982;&#26234;&#33021;&#39044;&#35686;</text></g><g id="elem_GMN16"><path d="M658.5,275.5 L658.5,301.65 L396.1,306.66 L658.5,309.65 L658.5,334.5547 A0,0 0 0 0 658.5,334.5547 L997.5,334.5547 A0,0 0 0 0 997.5,334.5547 L997.5,285.5 L987.5,275.5 L658.5,275.5 A0,0 0 0 0 658.5,275.5 " fill="#FEFFDD" style="stroke:#181818;stroke-width:0.5;"/><path d="M987.5,275.5 L987.5,285.5 L997.5,285.5 L987.5,275.5 " fill="#FEFFDD" style="stroke:#181818;stroke-width:0.5;"/><text fill="#000000" font-family="sans-serif" font-size="13" lengthAdjust="spacing" textLength="318" x="664.5" y="293.9951">- AI&#29983;&#25104;&#21487;&#35270;&#21270;&#20010;&#20154;&#23398;&#19994;&#25253;&#21578; (&#21547;&#25104;&#32489;&#36235;&#21183;&#12289;&#30693;&#35782;&#28857;&#25484;&#25569;)</text><text fill="#000000" font-family="sans-serif" font-size="13" lengthAdjust="spacing" textLength="228" x="664.5" y="310.3467">- AI&#20998;&#26512;&#24179;&#26102;&#25104;&#32489;&#34920;&#29616;&#65292;&#25552;&#20379;&#21453;&#39304;&#19982;&#39044;&#35686;</text><text fill="#000000" font-family="sans-serif" font-size="13" lengthAdjust="spacing" textLength="163" x="664.5" y="326.6982">- AI&#25552;&#20379;&#20010;&#24615;&#21270;&#23398;&#20064;&#21457;&#23637;&#24314;&#35758;</text></g><g id="elem_UC4_AI_TutorMatching"><ellipse cx="306.0109" cy="386.0022" fill="#F1F1F1" rx="73.0109" ry="17.0022" style="stroke:#181818;stroke-width:0.5;"/><text fill="#000000" font-family="sans-serif" font-size="14" lengthAdjust="spacing" textLength="96" x="255.0109" y="390.5188">AI&#26234;&#33021;&#23548;&#24072;&#21305;&#37197;</text></g><g id="elem_GMN20"><path d="M684,369.5 L684,385.62 L379.03,386.69 L684,393.62 L684,412.2031 A0,0 0 0 0 684,412.2031 L972,412.2031 A0,0 0 0 0 972,412.2031 L972,379.5 L962,369.5 L684,369.5 A0,0 0 0 0 684,369.5 " fill="#FEFFDD" style="stroke:#181818;stroke-width:0.5;"/><path d="M962,369.5 L962,379.5 L972,379.5 L962,369.5 " fill="#FEFFDD" style="stroke:#181818;stroke-width:0.5;"/><text fill="#000000" font-family="sans-serif" font-size="13" lengthAdjust="spacing" textLength="267" x="690" y="387.9951">- AI&#26681;&#25454;&#23398;&#29983;&#30740;&#31350;&#20852;&#36259;&#19982;&#23548;&#24072;&#19987;&#38271;&#36827;&#34892;&#26234;&#33021;&#25512;&#33616;</text><text fill="#000000" font-family="sans-serif" font-size="13" lengthAdjust="spacing" textLength="215" x="690" y="404.3467">- AI&#25972;&#21512;&#23548;&#24072;&#20449;&#24687;&#65292;&#36741;&#21161;&#23398;&#29983;&#20102;&#35299;&#23548;&#24072;</text></g><g id="elem_UC5_AI_ApplicationAndSchedule"><ellipse cx="305.7928" cy="466.8586" fill="#F1F1F1" rx="102.2928" ry="22.8586" style="stroke:#181818;stroke-width:0.5;"/><text fill="#000000" font-family="sans-serif" font-size="14" lengthAdjust="spacing" textLength="166" x="222.7928" y="470.5871">AI&#36741;&#21161;&#20107;&#21153;&#30003;&#35831;&#19982;&#26234;&#33021;&#26085;&#31243;</text></g><g id="elem_GMN24"><path d="M639,447.5 L639,464.28 L408.5,467.39 L639,472.28 L639,490.2031 A0,0 0 0 0 639,490.2031 L1017,490.2031 A0,0 0 0 0 1017,490.2031 L1017,457.5 L1007,447.5 L639,447.5 A0,0 0 0 0 639,447.5 " fill="#FEFFDD" style="stroke:#181818;stroke-width:0.5;"/><path d="M1007,447.5 L1007,457.5 L1017,457.5 L1007,447.5 " fill="#FEFFDD" style="stroke:#181818;stroke-width:0.5;"/><text fill="#000000" font-family="sans-serif" font-size="13" lengthAdjust="spacing" textLength="357" x="645" y="465.9951">- AI&#36741;&#21161;&#22870;&#23398;&#37329;&#12289;&#21019;&#26032;&#23398;&#20998;&#12289;&#31454;&#36187;&#31561;&#30003;&#35831; (&#20449;&#24687;&#21305;&#37197;&#12289;&#26448;&#26009;&#24314;&#35758;)</text><text fill="#000000" font-family="sans-serif" font-size="13" lengthAdjust="spacing" textLength="291" x="645" y="482.3467">- AI&#26234;&#33021;&#29983;&#25104;&#19982;&#31649;&#29702;&#20010;&#24615;&#21270;&#26085;&#31243;&#25552;&#37266; (&#20250;&#35758;&#12289;DDL&#31561;)</text></g><g id="elem_UC6_Student_Extracurricular"><ellipse cx="305.7928" cy="589.8586" fill="#F1F1F1" rx="102.2928" ry="22.8586" style="stroke:#181818;stroke-width:0.5;"/><text fill="#000000" font-family="sans-serif" font-size="14" lengthAdjust="spacing" textLength="166" x="222.7928" y="593.5871">AI&#36741;&#21161;&#21457;&#29616;&#19982;&#21442;&#19982;&#31532;&#20108;&#35838;&#22530;</text></g><g id="elem_GMN29"><path d="M736,568.5 L736,586 L408.81,590 L736,594 L736,611.2031 A0,0 0 0 0 736,611.2031 L920,611.2031 A0,0 0 0 0 920,611.2031 L920,578.5 L910,568.5 L736,568.5 A0,0 0 0 0 736,568.5 " fill="#FEFFDD" style="stroke:#181818;stroke-width:0.5;"/><path d="M910,568.5 L910,578.5 L920,578.5 L910,568.5 " fill="#FEFFDD" style="stroke:#181818;stroke-width:0.5;"/><text fill="#000000" font-family="sans-serif" font-size="13" lengthAdjust="spacing" textLength="163" x="742" y="586.9951">- AI&#20010;&#24615;&#21270;&#25512;&#36865;&#31532;&#20108;&#35838;&#22530;&#27963;&#21160;</text><text fill="#000000" font-family="sans-serif" font-size="13" lengthAdjust="spacing" textLength="137" x="742" y="603.3467">- AI&#36741;&#21161;&#25253;&#21517;&#19982;&#26085;&#31243;&#21516;&#27493;</text></g><g id="elem_UC_Org_ManageActivities"><ellipse cx="306.0137" cy="714.9027" fill="#F1F1F1" rx="115.0137" ry="25.4027" style="stroke:#181818;stroke-width:0.5;"/><text fill="#000000" font-family="sans-serif" font-size="14" lengthAdjust="spacing" textLength="194" x="209.0137" y="718.6313">&#21457;&#24067;&#19982;AI&#36741;&#21161;&#31649;&#29702;&#31532;&#20108;&#35838;&#22530;&#27963;&#21160;</text></g><g id="elem_GMN34"><path d="M723,693.5 L723,711 L421.12,715 L723,719 L723,736.2031 A0,0 0 0 0 723,736.2031 L933,736.2031 A0,0 0 0 0 933,736.2031 L933,703.5 L923,693.5 L723,693.5 A0,0 0 0 0 723,693.5 " fill="#FEFFDD" style="stroke:#181818;stroke-width:0.5;"/><path d="M923,693.5 L923,703.5 L933,703.5 L923,693.5 " fill="#FEFFDD" style="stroke:#181818;stroke-width:0.5;"/><text fill="#000000" font-family="sans-serif" font-size="13" lengthAdjust="spacing" textLength="125" x="729" y="711.9951">- &#21457;&#24067;&#19982;&#32500;&#25252;&#27963;&#21160;&#20449;&#24687;</text><text fill="#000000" font-family="sans-serif" font-size="13" lengthAdjust="spacing" textLength="189" x="729" y="728.3467">- AI&#36741;&#21161;&#27963;&#21160;&#25968;&#25454;&#20998;&#26512;&#19982;&#31574;&#21010;&#24314;&#35758;</text></g><g id="elem_ADM_UC1_UserManagement"><ellipse cx="827.8478" cy="980.8696" fill="#F1F1F1" rx="84.8478" ry="19.3696" style="stroke:#181818;stroke-width:0.5;"/><text fill="#000000" font-family="sans-serif" font-size="14" lengthAdjust="spacing" textLength="126" x="764.8478" y="984.5981">&#29992;&#25143;&#36134;&#25143;&#19982;&#26435;&#38480;&#31649;&#29702;</text></g><g id="elem_ADM_UC2_CoreDataManagement"><ellipse cx="828.2451" cy="1065.949" fill="#F1F1F1" rx="137.7451" ry="29.949" style="stroke:#181818;stroke-width:0.5;"/><text fill="#000000" font-family="sans-serif" font-size="14" lengthAdjust="spacing" textLength="112" x="772.2451" y="1060.8729">&#26680;&#24515;&#25945;&#23398;&#25968;&#25454;&#31649;&#29702;</text><text fill="#000000" font-family="sans-serif" font-size="14" lengthAdjust="spacing" textLength="192" x="732.2451" y="1078.4822">(&#22521;&#20859;&#26041;&#26696;&#12289;&#35838;&#31243;&#12289;&#25945;&#26448;&#12289;&#23548;&#24072;)</text></g><g id="elem_GMN40"><path d="M1093,1053 L1093,1062 L965.58,1066 L1093,1070 L1093,1079.3516 A0,0 0 0 0 1093,1079.3516 L1295,1079.3516 A0,0 0 0 0 1295,1079.3516 L1295,1063 L1285,1053 L1093,1053 A0,0 0 0 0 1093,1053 " fill="#FEFFDD" style="stroke:#181818;stroke-width:0.5;"/><path d="M1285,1053 L1285,1063 L1295,1063 L1285,1053 " fill="#FEFFDD" style="stroke:#181818;stroke-width:0.5;"/><text fill="#000000" font-family="sans-serif" font-size="13" lengthAdjust="spacing" textLength="181" x="1099" y="1071.4951">&#36825;&#20123;&#25968;&#25454;&#26159;AI&#20998;&#26512;&#19982;&#25512;&#33616;&#30340;&#22522;&#30784;</text></g><g id="elem_ADM_UC3_AI_Configuration"><ellipse cx="827.9659" cy="1151.8932" fill="#F1F1F1" rx="89.9659" ry="20.3932" style="stroke:#181818;stroke-width:0.5;"/><text fill="#000000" font-family="sans-serif" font-size="14" lengthAdjust="spacing" textLength="138" x="758.9659" y="1155.6217">AI&#31639;&#27861;&#21442;&#25968;&#37197;&#32622;&#19982;&#35843;&#20248;</text></g><g id="elem_GMN44"><path d="M1080,1139 L1080,1148 L918.04,1152 L1080,1156 L1080,1165.3516 A0,0 0 0 0 1080,1165.3516 L1308,1165.3516 A0,0 0 0 0 1308,1165.3516 L1308,1149 L1298,1139 L1080,1139 A0,0 0 0 0 1080,1139 " fill="#FEFFDD" style="stroke:#181818;stroke-width:0.5;"/><path d="M1298,1139 L1298,1149 L1308,1149 L1298,1139 " fill="#FEFFDD" style="stroke:#181818;stroke-width:0.5;"/><text fill="#000000" font-family="sans-serif" font-size="13" lengthAdjust="spacing" textLength="207" x="1086" y="1157.4951">&#30452;&#25509;&#24433;&#21709;AI&#26381;&#21153;&#30340;&#36136;&#37327;&#19982;&#20010;&#24615;&#21270;&#31243;&#24230;</text></g><g id="elem_ADM_UC4_SystemAnalytics"><ellipse cx="827.7928" cy="1230.8586" fill="#F1F1F1" rx="102.2928" ry="22.8586" style="stroke:#181818;stroke-width:0.5;"/><text fill="#000000" font-family="sans-serif" font-size="14" lengthAdjust="spacing" textLength="166" x="744.7928" y="1234.5871">&#31995;&#32479;&#20840;&#23616;&#25968;&#25454;&#19982;AI&#27934;&#23519;&#25253;&#21578;</text></g><g id="elem_GMN48"><path d="M1080,1218 L1080,1227 L930.88,1231 L1080,1235 L1080,1244.3516 A0,0 0 0 0 1080,1244.3516 L1308,1244.3516 A0,0 0 0 0 1308,1244.3516 L1308,1228 L1298,1218 L1080,1218 A0,0 0 0 0 1080,1218 " fill="#FEFFDD" style="stroke:#181818;stroke-width:0.5;"/><path d="M1298,1218 L1298,1228 L1308,1228 L1298,1218 " fill="#FEFFDD" style="stroke:#181818;stroke-width:0.5;"/><text fill="#000000" font-family="sans-serif" font-size="13" lengthAdjust="spacing" textLength="207" x="1086" y="1236.4951">AI&#36741;&#21161;&#29983;&#25104;&#31995;&#32479;&#36816;&#33829;&#19982;&#23398;&#24773;&#20998;&#26512;&#25253;&#21578;</text></g><g id="elem_ADM_UC5_KnowledgeBaseManagement"><ellipse cx="827.7877" cy="908.0575" fill="#F1F1F1" rx="78.2877" ry="18.0575" style="stroke:#181818;stroke-width:0.5;"/><text fill="#000000" font-family="sans-serif" font-size="14" lengthAdjust="spacing" textLength="110" x="771.0149" y="912.2774">AI&#38382;&#31572;&#30693;&#35782;&#24211;&#31649;&#29702;</text></g><g id="elem_GMN52"><path d="M1086.5,895 L1086.5,904 L906.64,908 L1086.5,912 L1086.5,921.3516 A0,0 0 0 0 1086.5,921.3516 L1301.5,921.3516 A0,0 0 0 0 1301.5,921.3516 L1301.5,905 L1291.5,895 L1086.5,895 A0,0 0 0 0 1086.5,895 " fill="#FEFFDD" style="stroke:#181818;stroke-width:0.5;"/><path d="M1291.5,895 L1291.5,905 L1301.5,905 L1291.5,895 " fill="#FEFFDD" style="stroke:#181818;stroke-width:0.5;"/><text fill="#000000" font-family="sans-serif" font-size="13" lengthAdjust="spacing" textLength="194" x="1092.5" y="913.4951">&#25903;&#25745;AI&#20132;&#20114;&#24335;&#38382;&#31572;&#30340;&#20934;&#30830;&#24615;&#19982;&#24191;&#24230;</text></g><g id="elem_ADM_UC6_ActivitySupervision"><ellipse cx="828.1887" cy="836.0377" fill="#F1F1F1" rx="80.6887" ry="18.5377" style="stroke:#181818;stroke-width:0.5;"/><text fill="#000000" font-family="sans-serif" font-size="14" lengthAdjust="spacing" textLength="112" x="769.5015" y="839.9661">&#31532;&#20108;&#35838;&#22530;&#27963;&#21160;&#30417;&#31649;</text></g><!--entity User--><g id="elem_User"><ellipse cx="55" cy="316.5" fill="#F1F1F1" rx="8" ry="8" style="stroke:#181818;stroke-width:0.5;"/><path d="M55,324.5 L55,351.5 M42,332.5 L68,332.5 M55,351.5 L42,366.5 M55,351.5 L68,366.5 " fill="none" style="stroke:#181818;stroke-width:0.5;"/><text fill="#000000" font-family="sans-serif" font-size="14" lengthAdjust="spacing" textLength="28" x="41" y="382.5332">&#23398;&#29983;</text></g><!--entity Admin--><g id="elem_Admin"><ellipse cx="306" cy="1318.5" fill="#F1F1F1" rx="8" ry="8" style="stroke:#181818;stroke-width:0.5;"/><path d="M306,1326.5 L306,1353.5 M293,1334.5 L319,1334.5 M306,1353.5 L293,1368.5 M306,1353.5 L319,1368.5 " fill="none" style="stroke:#181818;stroke-width:0.5;"/><text fill="#000000" font-family="sans-serif" font-size="14" lengthAdjust="spacing" textLength="42" x="285" y="1384.5332">&#31649;&#29702;&#26041;</text></g><!--entity Organizer--><g id="elem_Organizer"><ellipse cx="55" cy="684.5" fill="#F1F1F1" rx="8" ry="8" style="stroke:#181818;stroke-width:0.5;"/><path d="M55,692.5 L55,719.5 M42,700.5 L68,700.5 M55,719.5 L42,734.5 M55,719.5 L68,734.5 " fill="none" style="stroke:#181818;stroke-width:0.5;"/><text fill="#000000" font-family="sans-serif" font-size="14" lengthAdjust="spacing" textLength="98" x="6" y="750.5332">&#31532;&#20108;&#35838;&#22530;&#32452;&#32455;&#32773;</text></g><!--link User to UC1_AI_CourseAndPlan--><g id="link_User_UC1_AI_CourseAndPlan"><path d="M67.53,307.75 C80.26,270.99 104.27,217.06 143,185 C167.53,164.69 200.2,152.44 229.77,145.07 " fill="none" id="User-UC1_AI_CourseAndPlan" style="stroke:#181818;stroke-width:1.0;"/></g><!--link User to UC2_AI_TextbookSupport--><g id="link_User_UC2_AI_TextbookSupport"><path d="M69.19,331.52 C85.01,313.9 113.15,285.45 143,269 C171.29,253.4 205.34,242.7 234.91,235.57 " fill="none" id="User-UC2_AI_TextbookSupport" style="stroke:#181818;stroke-width:1.0;"/></g><!--link User to UC3_AI_AcademicAnalytics--><g id="link_User_UC3_AI_AcademicAnalytics"><path d="M69.04,344.91 C98.96,340.1 174.4,327.98 232,318.73 " fill="none" id="User-UC3_AI_AcademicAnalytics" style="stroke:#181818;stroke-width:1.0;"/></g><!--link User to UC4_AI_TutorMatching--><g id="link_User_UC4_AI_TutorMatching"><path d="M69.04,349.04 C101.26,354.09 186.28,367.41 244.94,376.59 " fill="none" id="User-UC4_AI_TutorMatching" style="stroke:#181818;stroke-width:1.0;"/></g><!--link User to UC5_AI_ApplicationAndSchedule--><g id="link_User_UC5_AI_ApplicationAndSchedule"><path d="M69.13,361.13 C85.1,377.52 113.6,404.31 143,420 C169.48,434.13 200.73,444.48 228.68,451.81 " fill="none" id="User-UC5_AI_ApplicationAndSchedule" style="stroke:#181818;stroke-width:1.0;"/></g><!--link User to UC6_Student_Extracurricular--><g id="link_User_UC6_Student_Extracurricular"><path d="M69.03,384.72 C82.8,420.01 107.47,472.33 143,507 C172.74,536.02 214.67,557.13 248.43,570.79 " fill="none" id="User-UC6_Student_Extracurricular" style="stroke:#181818;stroke-width:1.0;"/></g><!--link Organizer to UC_Org_ManageActivities--><g id="link_Organizer_UC_Org_ManageActivities"><path d="M104.01,715 C128.81,715 160.23,715 190.8,715 " fill="none" id="Organizer-UC_Org_ManageActivities" style="stroke:#181818;stroke-width:1.0;"/></g><!--link UC_Org_ManageActivities to ADM_UC6_ActivitySupervision--><g id="link_UC_Org_ManageActivities_ADM_UC6_ActivitySupervision"><path d="M385.98,733.38 C491.95,758.04 671.7362,799.8701 764.7262,821.5101 " fill="none" id="UC_Org_ManageActivities-to-ADM_UC6_ActivitySupervision" style="stroke:#181818;stroke-width:1.0;stroke-dasharray:7.0,7.0;"/><polygon fill="#181818" points="770.57,822.87,762.7109,816.9342,765.7001,821.7367,760.8976,824.726,770.57,822.87" style="stroke:#181818;stroke-width:1.0;"/><text fill="#000000" font-family="sans-serif" font-size="13" lengthAdjust="spacing" textLength="156" x="452" y="747.4951">&#171;extend&#187; (&#27963;&#21160;&#21487;&#33021;&#38656;&#23457;&#26680;)</text></g><!--link Admin to ADM_UC1_UserManagement--><g id="link_Admin_ADM_UC1_UserManagement"><path d="M327.16,1312.26 C352.26,1268.71 398.3,1195.55 451,1144 C522.9,1073.66 546.06,1056.46 639,1018 C674.19,1003.44 715.51,994.5 750.44,989.07 " fill="none" id="Admin-ADM_UC1_UserManagement" style="stroke:#181818;stroke-width:1.0;"/></g><!--link Admin to ADM_UC2_CoreDataManagement--><g id="link_Admin_ADM_UC2_CoreDataManagement"><path d="M327.05,1326.33 C353.46,1297.36 402.29,1246.81 451,1212 C527.66,1157.21 550.99,1147.66 639,1114 C667.32,1103.17 698.96,1094.02 728.09,1086.71 " fill="none" id="Admin-ADM_UC2_CoreDataManagement" style="stroke:#181818;stroke-width:1.0;"/></g><!--link Admin to ADM_UC3_AI_Configuration--><g id="link_Admin_ADM_UC3_AI_Configuration"><path d="M327.28,1337.72 C354.95,1322.47 406.22,1294.67 451,1273 C533.22,1233.22 551.95,1217.65 639,1190 C675.66,1178.36 717.5,1169.48 752.4,1163.25 " fill="none" id="Admin-ADM_UC3_AI_Configuration" style="stroke:#181818;stroke-width:1.0;"/></g><!--link Admin to ADM_UC4_SystemAnalytics--><g id="link_Admin_ADM_UC4_SystemAnalytics"><path d="M327.07,1344.45 C397.34,1328.5 634.6,1274.66 755.25,1247.28 " fill="none" id="Admin-ADM_UC4_SystemAnalytics" style="stroke:#181818;stroke-width:1.0;"/></g><!--link Admin to ADM_UC5_KnowledgeBaseManagement--><g id="link_Admin_ADM_UC5_KnowledgeBaseManagement"><path d="M319.04,1309.74 C338.77,1250.47 382.76,1137.08 451,1062 C517.35,988.99 547.2,980.12 639,944 C676.26,929.34 720.1,920.5 756.07,915.26 " fill="none" id="Admin-ADM_UC5_KnowledgeBaseManagement" style="stroke:#181818;stroke-width:1.0;"/></g><!--link Admin to ADM_UC6_ActivitySupervision--><g id="link_Admin_ADM_UC6_ActivitySupervision"><path d="M313.66,1309.95 C327.66,1237.94 366.15,1082.49 451,983 C528.43,892.21 669.17,857.16 754.76,843.87 " fill="none" id="Admin-ADM_UC6_ActivitySupervision" style="stroke:#181818;stroke-width:1.0;"/></g><!--SRC=[ZLTDRnf76BxpArPSQXySgVawM54a6lTWjL4hkRrLGblOa5NmOYrBchIgX8t1XF1b1-pO9C4q1fCc1gUcDYos-J7TcLbE_GjzPsSDYtSNrGVBCEyyyxpF- -cmy4ZXb0WdYw772XSKPI6WY179u-43IaJcq563bAeS7-L-Z0go-ILfrKWnXRTxz7jVS5cKp0Cl-VH9KxDw-nBjhv7-EkblwF6abvfz9uTuIVmLC3pq2LuAXGNEYtTLFN61oxieK_E514aX9ttIhtgvtpmUZblX0q_u49Wn5dY_YmO9to9yqhfx-4qEBb5B3dvYKI70HmNknmTV-dsB_WUHc1mLV5Bm-p0lqUUzlaNsrZ3-0kXftJn3qG_NKNhBQs184KKmTOWySaGop3XkZWCIwHH-LzIwVsggIafzb2XGp6eF9ViW3Awb_ptFua9Hkwo03OuVekmsUnhrLRtLiY3fX-_rTXzEIFCbEZWawb-0fBVNjVuPOEYNIPJvW58dv6XxT0aCV8kQUg2fMzhvwn4qUtZisraRNQxRE5j9ebOMfuj8ROpO3lzOr-djl8Md80KDSJpNfBv91Vf1UARy78ayMOgjh4HavKhiyYv-MyJvffuhKh1s3xTBx7rdiPsmBDJnVW_dMamam6EwezK2gb-mHzY3rXk6EoQFnfhUMAKy3lP8lmF-Ca8uKqURcQa-tgAyV04-A2oB0P_4XvyhOY1gUcbcee42w6Q66GewU-cCPc5Dqnm2KcZhXoc8g-cdvHbk1XK_WWdfVz1FNwBCu9_uAgdMzNQAhFLm7g9OcxM7l7U2TqxDMxKcoH-FueqAkM63vWoZRHDmbBsKH6yV5JRHv_B_o8tRHZnZq1KUyahWiIY59ieGjSzHDusolM4ovooL7S2M3gmjaFqI-N2AaXtzzBsHQXHPwxuQbWVweABNicQJCTB4Yb7ke6BQD1_Ky6fxN6u6iAQce3QPmLHVxnXHNLa9Ym6UDa_e5ak1nq8m1YsEESrWDHK2LYEb4xrzDaeNl5E7d7RMO0gmjO4mpdKQek769YG4IbVmzZ5yXF3J_FZuJl-xGevUiAUv6UOkKn_EQOLixxAWMfE74MGf2NnPsnyb12CEMJ9CRG7a-HxS1h25XM_XfTb9mJZkTuU6RfqMRktyhdz9YGLXClY_VgR8V20cos8W5kRb2MKXBI6fQVGBQvIf1TXPMLTOY_jZJ_FD8QXePTlfeqpJ5WDQeiKS3QsX3IfcyL5zkXAE4zDD33zCKVz3NeARFXZJJqL555WledNPJHXpWL5XmR9pTfR34NZatWWSUYVE730WbaDs2On3N3wczMdEo3pCBfYoJbt39iVLQi66FSfK8GEl2-5RUEYduvck98pqCaJIq86KcZXzfdSQy9l6uMrYk5jae5u7Z9imtsLXWLVuQpZiURgO73MOCmpa9sd6EZyXtzbCebLaZ1fQVKR7c7LIsltLUKuVx6fgXJs6NxV7AqQUjIwojuwgAgd5FGwEt6AxYlH83CLaerUOzK5QE_Ya36K1m53jvA95julZ1EmDxWJjQFCSgNHmleukFgDNEMWDHeO29RtJ76uKs4XcrK8JNsquaRpjNteULOJboJ7ALZwKRABFSUQzaSQuymwrgspekJErGSwFCf7rBOQk3ufwiSus8vn8CcNDwUz0z8x_6odoIrW8XeIluDjhkU5R7Ewqo569ZLsalhBcbnD9LxXv3fVQU6lpQfb3vmKJ6cAzaIAr5aXAMVS6BfBUzPlr-Xns9a5-AaQlGcylVLBP1AQSzwhelk3cvkQuoTsQnHKbJ_JL4Zq6CrfbyAVRGZm-TbdXnWQksy_On77gZu-d3SHh7jc7YujNxgDWX3YbIK-0Zlx9OSXkNTMjaT-uSNzgMEUvU_T0NcYUz-zpCooeT5M4dVDD7BLg4CHPZuMrKo-Tu6lyxqQvEdTKkuLJvx9RsTk7tSPMk7OJrxAncphgvV50cly7]--></g></svg>